<svg id="Layer_1" data-name="Layer 1" xmlns="http://www.w3.org/2000/svg" xmlns:xlink="http://www.w3.org/1999/xlink" viewBox="0 0 87 63"><defs><style>.cls-1,.cls-5{fill:none;}.cls-2{fill:#282827;}.cls-3{fill:#7996cd;}.cls-4{fill:#93c750;}.cls-5{stroke:#cbcbca;stroke-miterlimit:10;stroke-width:0.5px;}.cls-6{fill:#93c851;}.cls-7{clip-path:url(#clip-path);}</style><clipPath id="clip-path"><path class="cls-1" d="M60.76,33.54l-6.1-6a13.48,13.48,0,0,0,1.08-5.25,13.69,13.69,0,0,0-27.31-1.43H20.28A21.83,21.83,0,1,1,60.76,33.54Z"/></clipPath></defs><title>87x63</title><path class="cls-2" d="M53.21,41.07a22,22,0,0,1-11.17,3A21.72,21.72,0,0,1,20.26,23.39h8.15A13.64,13.64,0,0,0,47.34,34.85Z"/><path class="cls-2" d="M59.67,35.2l-2.34-2.3A7.69,7.69,0,0,1,53,37.25l2.4,2.35,5.22.8Z"/><path class="cls-2" d="M57.33,32.9A7.69,7.69,0,0,1,53,37.25l2.4,2.35,4.32-4.4Z"/><path class="cls-3" d="M58.82,40.13l1.75.27-.33-1.89A2.31,2.31,0,0,0,58.82,40.13Z"/><path class="cls-2" d="M57.7,33.71a2.77,2.77,0,1,1-3.9,3.94l-6.37-6.3,3.9-3.94Z"/><path class="cls-4" d="M51.26,26.83,58,33.45a3.14,3.14,0,0,1-4.41,4.46L46.85,31.3l.51-.52,6.69,6.61A2.41,2.41,0,0,0,57.44,34l-6.69-6.61Z"/><line class="cls-5" x1="48.13" y1="30.64" x2="50.86" y2="33.33"/><line class="cls-5" x1="49.38" y1="29.38" x2="50.92" y2="30.91"/><line class="cls-5" x1="50.62" y1="28.12" x2="56.99" y2="34.42"/><path class="cls-6" d="M16.26,56.9a2.13,2.13,0,0,0,1.35-.47V59a4.41,4.41,0,0,1-1.35.21,4.48,4.48,0,0,1,0-9,4.81,4.81,0,0,1,1.35.21v2.59a2.15,2.15,0,1,0-1.35,3.83Zm4.51,4.3c0,.88-.36,1.44-1.2,1.44-.64,0-1.16-.45-1.16-1.44V58.67a0,0,0,0,0,0,0V51.77c0-1.28.75-1.42,1.2-1.42a1.25,1.25,0,0,1,1.18,1.42Z"/><path class="cls-6" d="M27,56.68v2.48a3.73,3.73,0,0,1-.75.07,3.52,3.52,0,0,1-3.87-3.83V51.77c0-1,.52-1.42,1.16-1.42s1.2.43,1.2,1.42v3.59a1.51,1.51,0,0,0,1.51,1.51A1.59,1.59,0,0,0,27,56.68Zm3.12,1.18c0,.94-.54,1.37-1.2,1.37-.36,0-1.15-.07-1.15-1.37V51.51a1.17,1.17,0,0,1,1.13-1.18c.69,0,1.18.38,1.21,1.44Z"/><path class="cls-6" d="M35.82,50.27a4.4,4.4,0,0,1,1.58.29v2.71a2.14,2.14,0,0,0-1.58-.68,2.15,2.15,0,0,0,0,4.3,2.08,2.08,0,0,0,1.58-.68V59a4.79,4.79,0,0,1-1.58.28,4.48,4.48,0,1,1,0-9Zm2.36,8.38V50.88a1.06,1.06,0,0,1,1-.54h.1c.8.07,1.06.76,1.06,1.44v6c0,.71-.33,1.42-1.06,1.42h-.1A1.06,1.06,0,0,1,38.18,58.66Z"/><path class="cls-6" d="M41.84,51.65c0-.94.54-1.37,1.2-1.37.36,0,1.18.07,1.18,1.37v2.24a.48.48,0,0,0,0,.16v3.7c0,1-.54,1.44-1.15,1.44s-1.18-.38-1.21-1.44ZM45,52.83V50.34a3.19,3.19,0,0,1,.71-.07,3.52,3.52,0,0,1,3.87,3.83v3.63c0,1-.52,1.42-1.16,1.42s-1.2-.43-1.2-1.42V54.14a1.51,1.51,0,0,0-1.51-1.51A1.41,1.41,0,0,0,45,52.83Z"/><path class="cls-2" d="M52.34,49.35c0-1,.52-1.44,1.2-1.44s1.16.45,1.16,1.44v1.06h.71c.88,0,1.28.47,1.28,1s-.4,1.08-1.28,1.08H51.59c-.9,0-1.3-.47-1.3-1.08s.4-1,1.3-1h.75Z"/><path class="cls-6" d="M52.34,57.74V53.35H54.7v4.39c0,1-.52,1.42-1.16,1.42S52.34,58.72,52.34,57.74Z"/><path class="cls-2" d="M57.89,51.65c0-.94.54-1.37,1.2-1.37a1.1,1.1,0,0,1,.92.47,3.13,3.13,0,0,1,1.75-.47,1.22,1.22,0,0,1,1.18,1.18,1.27,1.27,0,0,1-1.18,1.2A1.55,1.55,0,0,0,60.25,54v3.7c0,1-.54,1.44-1.15,1.44s-1.18-.38-1.21-1.44Z"/><path class="cls-2" d="M67.87,50.27a4.4,4.4,0,0,1,1.58.29v2.71a2.14,2.14,0,0,0-1.58-.68,2.15,2.15,0,0,0,0,4.3,2.08,2.08,0,0,0,1.58-.68V59a4.79,4.79,0,0,1-1.58.28,4.48,4.48,0,1,1,0-9Zm2.36,8.38V50.88a1.06,1.06,0,0,1,1-.54h.1c.8.07,1.06.76,1.06,1.44v6c0,.71-.33,1.42-1.06,1.42h-.1A1.06,1.06,0,0,1,70.23,58.66Z"/><g class="cls-7"><path class="cls-2" d="M43.35,6.33a1,1,0,0,1-.83.58,1.3,1.3,0,0,1-.95-.46A2.06,2.06,0,0,1,41.25,6,2.46,2.46,0,0,1,41,5.52l1.83-4.19-1.51,0-.89,2.52q-.28-2.65-2.38-2.59a2.68,2.68,0,0,0-2.33,1.37,4.75,4.75,0,0,0-.68,2.73,3.31,3.31,0,0,0,.77,2.09,2.41,2.41,0,0,0,2,.92,2.65,2.65,0,0,0,1.82-.76A6.28,6.28,0,0,0,40.8,5.93q.17.54.29.9a3.72,3.72,0,0,0,.23.56q.45.92,1.08.9a.86.86,0,0,0,.78-.58,2.06,2.06,0,0,0,.22-1c0-.07,0-.13,0-.19A1.12,1.12,0,0,0,43.35,6.33Zm-4,.12q-1,1.5-1.75,1.52-1.29,0-1.35-2.16a4.84,4.84,0,0,1,.48-2.23,1.92,1.92,0,0,1,1.65-1.35,1.57,1.57,0,0,1,1.34.71,2.71,2.71,0,0,1,.45,1.49A4.33,4.33,0,0,1,39.32,6.45Z"/><path class="cls-2" d="M62.8,27.68c-.23.37-.33.52-.62.52s-.48-.19-.76-.51a2.07,2.07,0,0,1-.29-.45,2.56,2.56,0,0,1-.18-.5l1.64-4.08-1.24,0-.89,2.48q-.2-2.65-2.15-2.65a2.46,2.46,0,0,0-2.21,1.31,4.85,4.85,0,0,0-.59,2.68,3.46,3.46,0,0,0,.56,2.14,2.2,2.2,0,0,0,1.83,1,2.38,2.38,0,0,0,1.72-.71,6.28,6.28,0,0,0,1.1-1.69q.14.54.25.9a3.88,3.88,0,0,0,.2.57c.26.62.48,1,.87,1a.8.8,0,0,0,.74-.56,2,2,0,0,0,.07-1c0-.07,0-.13,0-.19A1.19,1.19,0,0,0,62.8,27.68Zm-3.49-.06q-.94,1.47-1.67,1.47-1.2,0-1.21-2.19a5.09,5.09,0,0,1,.5-2.21q.6-1.3,1.58-1.3a1.44,1.44,0,0,1,1.23.74,2.84,2.84,0,0,1,.38,1.5A4.48,4.48,0,0,1,59.32,27.62Z"/><path class="cls-2" d="M49.5,5.64q0-.69.07-1.18t0-.83q-.06-2.26-1.68-2.21a1.77,1.77,0,0,0-1.52.86A3.66,3.66,0,0,0,46,3a6,6,0,0,0-.31,1q-.25-2.47-1.49-2.43a.76.76,0,0,0-.58.25.83.83,0,0,0-.2.59,1,1,0,0,0,.12.42.34.34,0,0,0,.32.24.44.44,0,0,0,.25-.12.52.52,0,0,1,.32-.12q.92,0,1,1.62a6.23,6.23,0,0,1-.22,1.49q-.1.38-.21.76t-.21.75l1,0q.08-.47.16-.94t.18-.94a8.32,8.32,0,0,1,.68-2.16q.55-1,1.3-1.06T49,3.43a12.9,12.9,0,0,1-.4,2.91,12.88,12.88,0,0,0-.4,2.88q0,1.14.85,1.11a1.09,1.09,0,0,0,.46-.12.33.33,0,0,0,.23-.3,3.45,3.45,0,0,0,0-.44q0-.28-.12-.64a6.45,6.45,0,0,1-.17-1.15q0-.34,0-.85T49.5,5.64Z"/><path class="cls-2" d="M51.22,5.89a2.69,2.69,0,0,0-.81.87c-.47.75-.44.89-.45,1l.25.24a2.13,2.13,0,0,1,1.31-.86A3.56,3.56,0,0,1,52.13,7l1.34-.25q0,.16,0,.64t0,1.31a18,18,0,0,0,.14,1.92Q54.05,13.29,56,13a1.23,1.23,0,0,0,.94-.9,2.56,2.56,0,0,0,.21-1.36l0-.18a.47.47,0,0,0,0-.14,1.52,1.52,0,0,1-1.19,1,1.1,1.1,0,0,1-1-.42,2,2,0,0,1-.48-1,24.14,24.14,0,0,1-.18-3.24l1.17-.22L55.15,5l-2.77.53A3,3,0,0,0,51.22,5.89Z"/><path class="cls-2" d="M54.88,14.77c.89-.14,1.18.27,2,1.24A5.1,5.1,0,0,1,58,18.37a4.78,4.78,0,0,1,0,1.35q-.06.45-.07.78a2.8,2.8,0,0,0,0,.53q.07.44.82.32t.79-.69a3.37,3.37,0,0,0-.13-.48,5.23,5.23,0,0,0-.29-.68,6.26,6.26,0,0,1-.27-.67,3.43,3.43,0,0,1-.13-.49,4.29,4.29,0,0,1,.74-3.26,3.39,3.39,0,0,1,1-1l.6-.34.62-.34.06-.21a.67.67,0,0,0-.86-.65q-1.32.21-2.06,2.1a6.06,6.06,0,0,0-.51,2.72A10.85,10.85,0,0,0,57,14.94a2.28,2.28,0,0,0-2-1.16,1.46,1.46,0,0,0-.87.3,1.24,1.24,0,0,0-.35.76.87.87,0,0,0,0,.33A2.71,2.71,0,0,1,54.88,14.77Z"/><path class="cls-2" d="M38.55,9.1q.4.14.38.33a.13.13,0,0,1,0,.07.09.09,0,0,1-.07,0,.42.42,0,0,1-.18-.12l-.15-.13-.13-.09a1.09,1.09,0,0,0-.46-.14h-.15V9a1.52,1.52,0,0,1,.39-.36.79.79,0,0,1,.5-.14.4.4,0,0,1,.36.21l-.17,0a1.13,1.13,0,0,0-.46.06A.83.83,0,0,0,38,9,2.06,2.06,0,0,1,38.55,9.1Z"/><path class="cls-2" d="M58.14,14.86q.18-.58.4-.56a.15.15,0,0,1,.09.06.13.13,0,0,1,0,.1.65.65,0,0,1-.14.26l-.16.22-.11.19a1.84,1.84,0,0,0-.18.67q0,.11,0,.21H58a2,2,0,0,1-.43-.56,1.29,1.29,0,0,1-.16-.72.62.62,0,0,1,.26-.52,1.11,1.11,0,0,0,0,.24,1.91,1.91,0,0,0,.07.67,1.2,1.2,0,0,0,.28.56A3.56,3.56,0,0,1,58.14,14.86Z"/><path class="cls-2" d="M60.73,23.16q.14-.44.3-.43a.11.11,0,0,1,.07,0,.1.1,0,0,1,0,.07A.5.5,0,0,1,61,23l-.12.17-.08.14a1.41,1.41,0,0,0-.13.51q0,.08,0,.16h0a1.53,1.53,0,0,1-.33-.43,1,1,0,0,1-.12-.55.47.47,0,0,1,.2-.4.85.85,0,0,0,0,.19,1.46,1.46,0,0,0,.05.51.92.92,0,0,0,.22.43A2.72,2.72,0,0,1,60.73,23.16Z"/><path class="cls-2" d="M55.19,13.53q-.33,0-.37.09a.08.08,0,0,0,0,.06.07.07,0,0,0,0,0,.36.36,0,0,0,.16,0l.14,0,.12,0a1,1,0,0,1,.38,0l.11,0v0a1.1,1.1,0,0,0-.2-.33.71.71,0,0,0-.33-.23.34.34,0,0,0-.32,0l.13,0a1,1,0,0,1,.33.17.66.66,0,0,1,.23.26A2,2,0,0,0,55.19,13.53Z"/><path class="cls-2" d="M57.73,12.22q.29-.36.44-.28a.11.11,0,0,1,0,.07.1.1,0,0,1,0,.08.5.5,0,0,1-.17.14l-.17.11-.13.1a1.41,1.41,0,0,0-.32.42l-.07.15,0,0a1.53,1.53,0,0,1-.15-.52,1,1,0,0,1,.09-.55.47.47,0,0,1,.33-.3.85.85,0,0,0-.1.16,1.46,1.46,0,0,0-.14.49.92.92,0,0,0,0,.48A2.72,2.72,0,0,1,57.73,12.22Z"/><path class="cls-2" d="M50.54,5.78q.41-.51.66-.4a.2.2,0,0,1,.08.1.14.14,0,0,1,0,.12.64.64,0,0,1-.26.2l-.26.15-.19.14a1.67,1.67,0,0,0-.43.6l-.08.21-.06,0a2.35,2.35,0,0,1-.34-.75,1.22,1.22,0,0,1,0-.8.61.61,0,0,1,.48-.42,1,1,0,0,0-.14.23,1.74,1.74,0,0,0-.13.71,1.28,1.28,0,0,0,.16.69A3.18,3.18,0,0,1,50.54,5.78Z"/><path class="cls-2" d="M41,7.82q.22.57.48.55a.19.19,0,0,0,.1-.06.13.13,0,0,0,.05-.1A.6.6,0,0,0,41.41,8l-.19-.21-.13-.18a1.57,1.57,0,0,1-.21-.66q0-.11,0-.21H40.8a2.2,2.2,0,0,0-.52.58A1.14,1.14,0,0,0,40.1,8a.57.57,0,0,0,.31.52.93.93,0,0,1-.06-.24,1.63,1.63,0,0,1,.08-.67A1.2,1.2,0,0,1,40.77,7,3,3,0,0,0,41,7.82Z"/><path class="cls-2" d="M29.51,16.73q.4-.36.3-.57a.17.17,0,0,0-.08-.06.11.11,0,0,0-.1,0,.53.53,0,0,0-.15.22l-.11.22-.11.16a1.39,1.39,0,0,1-.48.38l-.17.08,0,.05a1.94,1.94,0,0,0,.64.24,1,1,0,0,0,.66-.07.51.51,0,0,0,.33-.42.82.82,0,0,1-.18.12,1.44,1.44,0,0,1-.58.14,1.06,1.06,0,0,1-.58-.1A2.63,2.63,0,0,0,29.51,16.73Z"/><path class="cls-2" d="M24.55,18.87q0,.31.08.36h.06l0,0a.3.3,0,0,0,0-.15,1.36,1.36,0,0,1,0-.14.78.78,0,0,1,.05-.46l0-.1h0a1.11,1.11,0,0,0-.37.13.58.58,0,0,0-.26.27.29.29,0,0,0,0,.3.47.47,0,0,1,0-.12.82.82,0,0,1,.2-.28.6.6,0,0,1,.29-.17A1.5,1.5,0,0,0,24.55,18.87Z"/><path class="cls-2" d="M21.87,20.42q.49-.22.45-.45a.17.17,0,0,0-.06-.09.11.11,0,0,0-.09,0A.53.53,0,0,0,22,20l-.18.18-.15.12a1.39,1.39,0,0,1-.57.23l-.19,0v.06a1.94,1.94,0,0,0,.54.42,1,1,0,0,0,.65.13.51.51,0,0,0,.44-.3.82.82,0,0,1-.21.06,1.44,1.44,0,0,1-.6,0,1.06,1.06,0,0,1-.53-.26A2.63,2.63,0,0,0,21.87,20.42Z"/><path class="cls-2" d="M26.76,18.74q.49.13.59-.06a.15.15,0,0,0,0-.1.11.11,0,0,0,0-.08.5.5,0,0,0-.25,0l-.23,0h-.18a1.29,1.29,0,0,1-.55-.17L26,18.26l0,0a1.81,1.81,0,0,0,.14.62.94.94,0,0,0,.4.47.47.47,0,0,0,.49,0l-.19-.08a1.34,1.34,0,0,1-.41-.37,1,1,0,0,1-.23-.5A2.45,2.45,0,0,0,26.76,18.74Z"/><path class="cls-2" d="M43.95,6.7q-.07.51-.26.52a.12.12,0,0,1-.08,0,.11.11,0,0,1,0-.07.55.55,0,0,1,.08-.23l.1-.2a1.44,1.44,0,0,0,.06-.17,1.56,1.56,0,0,0,.06-.58q0-.09,0-.18h0a1.69,1.69,0,0,1,.43.41,1.09,1.09,0,0,1,.22.58.52.52,0,0,1-.15.47.94.94,0,0,0,0-.21,1.62,1.62,0,0,0-.14-.55A1,1,0,0,0,44,6,3,3,0,0,1,43.95,6.7Z"/><path class="cls-2" d="M46.1,2.11q.23-.46.41-.41s0,0,.06.06a.11.11,0,0,1,0,.09.55.55,0,0,1-.15.19l-.16.16-.11.14a1.56,1.56,0,0,0-.24.53l0,.17h0a1.69,1.69,0,0,1-.28-.52,1.09,1.09,0,0,1,0-.62.52.52,0,0,1,.29-.4.94.94,0,0,0-.07.2,1.62,1.62,0,0,0,0,.57,1,1,0,0,0,.16.51A3,3,0,0,1,46.1,2.11Z"/><path class="cls-2" d="M34,10.36q.25.33.42.26a.13.13,0,0,0,.05-.06.09.09,0,0,0,0-.07.41.41,0,0,0-.16-.13l-.17-.1L34,10.17a1.06,1.06,0,0,1-.27-.38l-.05-.13,0,0a1.48,1.48,0,0,0-.22.47.77.77,0,0,0,0,.5.39.39,0,0,0,.3.27.63.63,0,0,1-.09-.15,1.1,1.1,0,0,1-.08-.45.81.81,0,0,1,.1-.44A2,2,0,0,0,34,10.36Z"/><path class="cls-2" d="M28.84,12.08q-.32-.29-.47-.19a.13.13,0,0,0,0,.07.09.09,0,0,0,0,.08.42.42,0,0,0,.19.1l.19.07.14.07a1.1,1.1,0,0,1,.34.35l.08.13,0,0a1.55,1.55,0,0,0,.14-.52.8.8,0,0,0-.11-.51.4.4,0,0,0-.36-.22.65.65,0,0,1,.11.13,1.15,1.15,0,0,1,.16.45.84.84,0,0,1,0,.47A2.09,2.09,0,0,0,28.84,12.08Z"/><path class="cls-2" d="M31,11.1q.42.25.56.1a.15.15,0,0,0,0-.09.1.1,0,0,0,0-.08.48.48,0,0,0-.23-.07l-.22,0-.17,0a1.24,1.24,0,0,1-.46-.3l-.11-.12,0,0a1.74,1.74,0,0,0,0,.61.9.9,0,0,0,.24.54.45.45,0,0,0,.45.16.73.73,0,0,1-.16-.12,1.29,1.29,0,0,1-.28-.46,1,1,0,0,1-.07-.52A2.35,2.35,0,0,0,31,11.1Z"/><path class="cls-2" d="M24.21,10.12q-.14.29,0,.38l.06,0,.06,0a.32.32,0,0,0,0-.16,1.41,1.41,0,0,1,0-.15.81.81,0,0,1,.2-.43l.08-.08,0,0a1.16,1.16,0,0,0-.41,0,.6.6,0,0,0-.35.19.3.3,0,0,0-.09.3.49.49,0,0,1,.07-.11.86.86,0,0,1,.29-.21.63.63,0,0,1,.34-.08A1.57,1.57,0,0,0,24.21,10.12Z"/><path class="cls-2" d="M40.06,1.51q-.4-.63-.71-.53a.23.23,0,0,0-.11.1.16.16,0,0,0,0,.13q0,.09.27.26l.28.2.2.18a1.91,1.91,0,0,1,.42.73q0,.13.07.25l.07,0A2.68,2.68,0,0,0,41,2a1.39,1.39,0,0,0,0-.91.7.7,0,0,0-.5-.53,1.13,1.13,0,0,1,.13.28,2,2,0,0,1,.07.82,1.46,1.46,0,0,1-.26.77A3.63,3.63,0,0,0,40.06,1.51Z"/><path class="cls-2" d="M52.91,7.67q-.11.39,0,.48H53a.08.08,0,0,0,.07,0,.4.4,0,0,0,0-.2,1.77,1.77,0,0,1,0-.19,1,1,0,0,1,.16-.58L53.31,7l0,0a1.45,1.45,0,0,0-.5.1.75.75,0,0,0-.39.31.38.38,0,0,0,0,.39.61.61,0,0,1,.07-.15,1.08,1.08,0,0,1,.31-.32.79.79,0,0,1,.41-.17A2,2,0,0,0,52.91,7.67Z"/><path class="cls-2" d="M60.63,28.79q0,.4.2.43l.08,0s0,0,0-.05a.4.4,0,0,0-.06-.19l-.08-.17a1,1,0,0,1-.06-.6l0-.14h0a1.45,1.45,0,0,0-.43.27.75.75,0,0,0-.25.42.38.38,0,0,0,.1.38.61.61,0,0,1,0-.16,1.08,1.08,0,0,1,.18-.41.79.79,0,0,1,.32-.3A2,2,0,0,0,60.63,28.79Z"/><path class="cls-2" d="M61.15,15.83a.4.4,0,0,0,0-.49,1.45,1.45,0,0,0-.31-.44,1.24,1.24,0,0,0-.42-.29.4.4,0,0,0-.47,0,.4.4,0,0,0-.06.49,1.48,1.48,0,0,0,.31.45,1.33,1.33,0,0,0,.42.31A.4.4,0,0,0,61.15,15.83ZM60.07,15q-.13-.23,0-.32t.33,0a2.25,2.25,0,0,1,.29.24l-.37.35A1.79,1.79,0,0,1,60.07,15Zm.26.37.38-.37.07.07.14.16.12.18q.17.28.07.37t-.34,0a1.6,1.6,0,0,1-.29-.25Z"/><path class="cls-2" d="M59.31,21.84q0-.22-.32-.29a1.28,1.28,0,0,0-.47,0,1.09,1.09,0,0,0-.43.13.35.35,0,0,0-.22.34.36.36,0,0,0,.31.31,1.3,1.3,0,0,0,.48,0,1.17,1.17,0,0,0,.44-.13A.36.36,0,0,0,59.31,21.84Zm-1.15.31q-.23,0-.24-.15t.19-.22l.32-.07,0,.45A1.57,1.57,0,0,1,58.16,22.15Zm.39,0-.05-.46H59q.28,0,.3.15t-.19.23a1.41,1.41,0,0,1-.33.07Z"/><path class="cls-2" d="M61.35,31.33a.4.4,0,0,0,.46-.18,1.45,1.45,0,0,0,.26-.47,1.24,1.24,0,0,0,.07-.5.4.4,0,0,0-.24-.4.4.4,0,0,0-.47.16,1.48,1.48,0,0,0-.26.48,1.33,1.33,0,0,0-.09.51A.4.4,0,0,0,61.35,31.33ZM61.6,30q.14-.22.27-.17t.13.3a2.25,2.25,0,0,1-.08.37l-.48-.18A1.79,1.79,0,0,1,61.6,30Zm-.21.4.5.18,0,.09a2,2,0,0,1-.08.2l-.11.19q-.17.27-.3.23T61.23,31a1.6,1.6,0,0,1,.09-.37Z"/><path class="cls-2" d="M56.31,17.28a.64.64,0,0,0,.25-.74,2.32,2.32,0,0,0-.32-.8,2,2,0,0,0-.54-.61A.64.64,0,0,0,55,15a.65.65,0,0,0-.28.74,2.37,2.37,0,0,0,.32.81,2.13,2.13,0,0,0,.54.64A.65.65,0,0,0,56.31,17.28ZM54.93,15.6q-.12-.4.06-.51t.5.16a3.61,3.61,0,0,1,.36.48l-.71.41A2.87,2.87,0,0,1,54.93,15.6Zm.27.66.73-.43L56,16a3.19,3.19,0,0,1,.16.31,2.56,2.56,0,0,1,.12.32q.16.49,0,.61t-.52-.15a2.57,2.57,0,0,1-.36-.49Z"/><path class="cls-2" d="M50.49,3.5q.29-.09.31-.5a1.74,1.74,0,0,0-.09-.64,1.48,1.48,0,0,0-.29-.54.48.48,0,0,0-.52-.21.48.48,0,0,0-.33.49,1.77,1.77,0,0,0,.09.64,1.59,1.59,0,0,0,.28.56A.48.48,0,0,0,50.49,3.5ZM49.79,2q0-.31.14-.36t.34.2a2.7,2.7,0,0,1,.18.41l-.59.17A2.14,2.14,0,0,1,49.79,2Zm.08.53.6-.18,0,.11a2.39,2.39,0,0,1,.06.25,1.91,1.91,0,0,1,0,.26q0,.39-.13.44t-.35-.2a1.92,1.92,0,0,1-.17-.42Z"/><path class="cls-2" d="M44.07,4.38a.37.37,0,0,0,.44-.07,1.22,1.22,0,0,0,.3-.37A1,1,0,0,0,45,3.51a.37.37,0,0,0-.16-.4.38.38,0,0,0-.45.06,1.24,1.24,0,0,0-.3.37,1.11,1.11,0,0,0-.16.43A.38.38,0,0,0,44.07,4.38Zm.42-1.12q.16-.17.27-.1t.07.29a1.88,1.88,0,0,1-.13.31l-.41-.24A1.5,1.5,0,0,1,44.5,3.26Zm-.25.31.43.24,0,.07-.1.16-.12.14q-.2.21-.31.14T44,4a1.34,1.34,0,0,1,.14-.31Z"/><path class="cls-2" d="M32.89,11.35q-.16-.23-.55-.11a1.94,1.94,0,0,0-.59.29,1.65,1.65,0,0,0-.44.44q-.22.32-.07.53a.46.46,0,0,0,.55.14,2,2,0,0,0,.59-.29,1.77,1.77,0,0,0,.46-.44A.45.45,0,0,0,32.89,11.35Zm-1.22,1.12q-.29.12-.38,0t.11-.37a3,3,0,0,1,.35-.3l.32.47A2.4,2.4,0,0,1,31.67,12.46Zm.49-.25-.33-.48.1-.07.22-.14.24-.11q.36-.15.45,0t-.1.38a2.15,2.15,0,0,1-.36.29Z"/><path class="cls-2" d="M52.8,8.43q-.28,0-.43.37a1.94,1.94,0,0,0-.13.64,1.65,1.65,0,0,0,.07.61q.12.37.38.38t.45-.35a2,2,0,0,0,.13-.65,1.77,1.77,0,0,0-.06-.63A.45.45,0,0,0,52.8,8.43Zm.14,1.65q-.09.31-.23.3t-.23-.31a3,3,0,0,1,0-.46l.57,0A2.4,2.4,0,0,1,52.94,10.07Zm.1-.54-.58,0V9.38q0-.13,0-.26a2.14,2.14,0,0,1,.06-.26q.1-.38.25-.37t.24.31a2.15,2.15,0,0,1,0,.46Z"/><path class="cls-2" d="M56.58,19.73l.07-.07.08-.07a.09.09,0,0,1,.07,0,.11.11,0,0,1,.06,0q.07.1-.06.19a.4.4,0,0,1-.32.06.42.42,0,0,1-.26-.19.33.33,0,0,1-.06-.23.28.28,0,0,1,.13-.19l.11-.06.07,0,.05,0q.29-.19.16-.38a.39.39,0,0,0-.33-.18.7.7,0,0,1-.15.12q-.3.2-.38.08t.09-.19a.69.69,0,0,1,.4-.11.2.2,0,0,0,0-.19.35.35,0,0,0-.35-.18,2.23,2.23,0,0,0-.37.12q-.2.07-.25,0T55.4,18a.82.82,0,0,1,.5,0q.13-.08.06-.19l0,0,0,0s0-.08,0-.11a.12.12,0,0,1,.1,0,.13.13,0,0,1,.08.06.18.18,0,0,1,0,.18A.32.32,0,0,1,56,18l0,0q.33,0,.43.16a.31.31,0,0,1,0,.3.58.58,0,0,1,.41.23.36.36,0,0,1,0,.32.51.51,0,0,1-.22.26l0,0-.07,0-.07,0-.05,0q-.2.13-.1.27a.18.18,0,0,0,.11.08A.17.17,0,0,0,56.58,19.73Z"/><path class="cls-2" d="M51,1.74h.18a.08.08,0,0,0,.05,0,.09.09,0,0,0,0-.07q0-.11-.15-.08a.35.35,0,0,0-.24.15.37.37,0,0,0-.06.28.28.28,0,0,0,.1.18.24.24,0,0,0,.2,0l.11,0h.12q.29-.05.33.15a.33.33,0,0,1-.1.31h-.16q-.31.05-.29.17t.17.07a.6.6,0,0,0,.31-.17.17.17,0,0,1,.1.13.3.3,0,0,1-.12.32,1.94,1.94,0,0,1-.31.14q-.17.07-.15.16t.15.06a.71.71,0,0,0,.35-.27q.13,0,.15.09v.07s0,.05.1,0a.1.1,0,0,0,.07,0,.12.12,0,0,0,0-.08.16.16,0,0,0-.1-.12.27.27,0,0,0-.17,0h0q.2-.21.18-.36a.27.27,0,0,0-.18-.19.51.51,0,0,0,.13-.39A.31.31,0,0,0,51.59,2a.44.44,0,0,0-.29,0h0L51.2,2l-.07,0h-.05q-.2,0-.23-.11a.16.16,0,0,1,0-.12A.15.15,0,0,1,51,1.74Z"/><path class="cls-2" d="M43.12,1.38l.05,0,.05,0h0l0,0s0-.08-.06-.1a.23.23,0,0,0-.19,0,.25.25,0,0,0-.12.14.19.19,0,0,0,0,.14.16.16,0,0,0,.1.09l.07,0h.08q.19.06.15.19a.22.22,0,0,1-.16.15l-.1,0q-.2-.07-.22,0s0,.07.08.09a.4.4,0,0,0,.24,0,.11.11,0,0,1,0,.11A.2.2,0,0,1,43,2.4l-.23,0q-.12,0-.14,0s0,.07.07.09a.48.48,0,0,0,.29,0q.08,0,.06.1v0s0,0,0,.06h.06a.08.08,0,0,0,0,0,.11.11,0,0,0,0-.1.18.18,0,0,0-.09-.06h0q.19-.06.22-.15a.18.18,0,0,0,0-.17.34.34,0,0,0,.2-.19.21.21,0,0,0,0-.19.3.3,0,0,0-.16-.12h-.15q-.13,0-.1-.14A.11.11,0,0,1,43,1.39.1.1,0,0,1,43.12,1.38Z"/><path class="cls-2" d="M59.08,12.59l.12,0,.12,0a.12.12,0,0,1,.06.07.1.1,0,0,1,0,.08q-.06.11-.23,0a.56.56,0,0,1-.27-.29.4.4,0,0,1,0-.34.3.3,0,0,1,.2-.16.39.39,0,0,1,.28.05l.13.08.09.05.07,0q.38.21.49,0a.38.38,0,0,0,0-.41l-.21-.1q-.39-.22-.32-.34t.25,0a1,1,0,0,1,.36.35.19.19,0,0,0,.18-.1.36.36,0,0,0,0-.43A3.27,3.27,0,0,0,60,11q-.2-.17-.15-.26t.22,0a1.12,1.12,0,0,1,.37.48q.17.09.23,0l0,0,0,0s.07,0,.15,0a.16.16,0,0,1,.08.09.13.13,0,0,1,0,.1.19.19,0,0,1-.18.09.46.46,0,0,1-.23-.06l0,0q.2.34.11.5a.32.32,0,0,1-.3.13.57.57,0,0,1,0,.51.35.35,0,0,1-.3.18.73.73,0,0,1-.41-.11l0,0-.08-.05-.08-.05-.06,0q-.26-.14-.34,0a.17.17,0,0,0,0,.15A.23.23,0,0,0,59.08,12.59Z"/><path class="cls-2" d="M22.36,17.5l-.08,0-.08,0a.08.08,0,0,0,0,.06.09.09,0,0,0,0,.07q.07.09.17,0a.35.35,0,0,0,.14-.25.37.37,0,0,0-.08-.27.29.29,0,0,0-.18-.12.24.24,0,0,0-.2.06L22,17.2l-.05,0,0,0q-.24.18-.36,0a.34.34,0,0,1-.05-.33l.14-.09q.25-.19.18-.29s-.1,0-.18,0a.6.6,0,0,0-.2.3.17.17,0,0,1-.15-.07.31.31,0,0,1,0-.35,2,2,0,0,1,.21-.27q.12-.14.06-.21s-.09,0-.16,0a.72.72,0,0,0-.19.4q-.11.08-.18,0l0,0,0,0s-.06,0-.11,0a.1.1,0,0,0,0,.08.12.12,0,0,0,0,.08.16.16,0,0,0,.15.06.28.28,0,0,0,.16-.06l0,0a.45.45,0,0,0,0,.4.28.28,0,0,0,.25.09.51.51,0,0,0,.07.41.31.31,0,0,0,.25.13.45.45,0,0,0,.28-.1l0,0,0,0,.05,0,0,0q.16-.13.26,0a.16.16,0,0,1,0,.12A.15.15,0,0,1,22.36,17.5Z"/><path class="cls-2" d="M61.57,15.83s-.06,0-.06.15,0,.11,0,.12h.64a1.73,1.73,0,0,0,.34,0,.24.24,0,0,0,.19-.25.21.21,0,0,0-.07-.16.22.22,0,0,0-.16-.07l-.11,0s-.06,0-.06.06.22.15.22.23,0,.09-.1.09a1.77,1.77,0,0,1-.45-.09A1.82,1.82,0,0,0,61.57,15.83Z"/><path class="cls-2" d="M58.39,11.89s0,.11.15.19.16.07.2,0a1,1,0,0,0,.13-.18L59,11.8l.11-.19.12-.19.09-.14a2.67,2.67,0,0,0,.26-.47.37.37,0,0,0-.17-.45.33.33,0,0,0-.27,0,.34.34,0,0,0-.22.15.42.42,0,0,0-.06.16.13.13,0,0,0,0,.13q.32-.2.48-.1a.13.13,0,0,1,0,.2,2.73,2.73,0,0,1-.49.51A2.81,2.81,0,0,0,58.39,11.89Z"/><path class="cls-2" d="M61,16.82s.07,0,.1-.13,0-.12,0-.14l-.15,0-.11,0-.15,0-.15,0-.11,0A1.83,1.83,0,0,0,60,16.3a.25.25,0,0,0-.26.2.23.23,0,0,0,0,.18.24.24,0,0,0,.14.11h.11a.09.09,0,0,0,.08,0q-.2-.17-.16-.29a.09.09,0,0,1,.12-.07,1.87,1.87,0,0,1,.44.21A1.93,1.93,0,0,0,61,16.82Z"/><path class="cls-2" d="M61.71,22.39s0,0,.07-.09,0-.08,0-.09l-.1,0-.07,0-.1,0-.1,0-.08,0-.24,0a.17.17,0,0,0-.18.14.15.15,0,0,0,0,.12.16.16,0,0,0,.1.08h.08a.06.06,0,0,0,.05,0q-.13-.11-.11-.2a.06.06,0,0,1,.08,0,1.28,1.28,0,0,1,.3.15A1.31,1.31,0,0,0,61.71,22.39Z"/><path class="cls-2" d="M57.31,19.7s0,.07.14.09.12,0,.14,0a.69.69,0,0,0,0-.15l0-.11,0-.15,0-.15,0-.11a1.83,1.83,0,0,0,0-.36.25.25,0,0,0-.22-.24.23.23,0,0,0-.18,0,.24.24,0,0,0-.1.15.29.29,0,0,0,0,.11.09.09,0,0,0,.05.08q.15-.21.28-.18a.09.09,0,0,1,.08.12,1.87,1.87,0,0,1-.18.45A1.93,1.93,0,0,0,57.31,19.7Z"/><path class="cls-2" d="M63.07,22s0,.07.13.11.12,0,.14,0a.69.69,0,0,0,.06-.14l0-.1,0-.15,0-.15,0-.11a1.85,1.85,0,0,0,.1-.36.25.25,0,0,0-.19-.27.23.23,0,0,0-.19,0,.24.24,0,0,0-.12.14.29.29,0,0,0,0,.11.09.09,0,0,0,0,.08q.18-.19.31-.14a.09.09,0,0,1,.06.13,1.89,1.89,0,0,1-.25.42A2,2,0,0,0,63.07,22Z"/><path class="cls-2" d="M46.92,1.46s-.09,0-.15-.13,0-.13,0-.17l.16-.1L47,1,47.2.92l.17-.08.12-.06A2.24,2.24,0,0,1,47.9.59a.31.31,0,0,1,.36.17.28.28,0,0,1,0,.23.29.29,0,0,1-.14.17L48,1.2a.11.11,0,0,1-.11,0q.19-.25.12-.39a.11.11,0,0,0-.16,0,2.28,2.28,0,0,0-.46.37A2.35,2.35,0,0,1,46.92,1.46Z"/><path class="cls-2" d="M25,9.19s-.07,0-.09.15,0,.13,0,.15l.17,0,.12,0,.17,0,.17,0,.13,0a2.16,2.16,0,0,0,.41,0,.27.27,0,0,0,.27-.25.24.24,0,0,0-.05-.2.27.27,0,0,0-.17-.11H26a.1.1,0,0,0-.08.06q.24.16.22.3T26,9.57a2.2,2.2,0,0,1-.51-.19A2.26,2.26,0,0,0,25,9.19Z"/><path class="cls-2" d="M36.52.95s.06,0,.13,0,.07.06.06.09l-.06.12-.05.08-.07.11-.07.12-.05.09a1.86,1.86,0,0,1-.18.27.2.2,0,0,1-.26,0,.16.16,0,0,1-.08-.12.22.22,0,0,1,0-.15L36,1.53a.08.08,0,0,1,.07,0q0,.22.05.27s.08,0,.11,0a1.88,1.88,0,0,0,.16-.4A1.93,1.93,0,0,1,36.52.95Z"/><path class="cls-2" d="M55.6,11.05a1.18,1.18,0,0,0,.83-.22,1,1,0,0,0,.42-.72,1.23,1.23,0,0,0-.34-.92,7.25,7.25,0,0,0-.75-.67q-.41-.31-.39-.46A.1.1,0,0,1,55.42,8a.17.17,0,0,1,.1,0q.34,0,1.21.9a.39.39,0,0,0,.18-.1A.27.27,0,0,0,57,8.59q0-.18-.54-.48a2.41,2.41,0,0,0-.75-.3.6.6,0,0,0-.33,0,.34.34,0,0,0-.18.27q0,.2.38.59l.28.27.28.26a.93.93,0,0,0-.39-.13.88.88,0,0,0-.71.22,1,1,0,0,0-.33.67.93.93,0,0,0,.88,1.07Zm-.24-1.56a.58.58,0,0,1,.55-.25q.58.06.5.79a1.18,1.18,0,0,1-.25.6.61.61,0,0,1-.55.3.48.48,0,0,1-.4-.32,1,1,0,0,1-.08-.53A1.09,1.09,0,0,1,55.36,9.49Z"/><path class="cls-2" d="M45.23,1.25a.56.56,0,0,0,.09-.4A.46.46,0,0,0,45.1.53a.58.58,0,0,0-.46-.06,3.42,3.42,0,0,0-.45.17q-.22.1-.28.06a0,0,0,0,1,0,0,.08.08,0,0,1,0,0A1.43,1.43,0,0,1,44.55.3a.18.18,0,0,0,0-.1.13.13,0,0,0,0-.07s-.16,0-.32.12a1.14,1.14,0,0,0-.29.25.28.28,0,0,0-.05.15.16.16,0,0,0,.08.13q.08.05.33,0l.17-.06.17-.06a.44.44,0,0,0-.14.14.41.41,0,0,0-.06.35.46.46,0,0,0,.21.28.44.44,0,0,0,.64-.14ZM44.52,1a.28.28,0,0,1,0-.28q.15-.23.44,0a.56.56,0,0,1,.2.24.29.29,0,0,1,0,.29.23.23,0,0,1-.22.1.47.47,0,0,1-.24-.08A.51.51,0,0,1,44.52,1Z"/><path class="cls-2" d="M36,8.62a.53.53,0,0,0,0,.38.43.43,0,0,0,.29.24.55.55,0,0,0,.43-.08,3.23,3.23,0,0,0,.35-.28q.17-.15.23-.14a0,0,0,0,1,0,0,.08.08,0,0,1,0,0q0,.15-.49.46a.17.17,0,0,0,0,.08.12.12,0,0,0,.06.05q.08,0,.25-.2a1.07,1.07,0,0,0,.19-.3.27.27,0,0,0,0-.15.15.15,0,0,0-.11-.1q-.09,0-.29.12l-.14.1L36.79,9a.42.42,0,0,0,.09-.16.39.39,0,0,0,0-.33.44.44,0,0,0-.27-.2.42.42,0,0,0-.54.3Zm.71,0a.26.26,0,0,1,.07.26q-.07.25-.38.16a.53.53,0,0,1-.25-.16.27.27,0,0,1-.09-.26.21.21,0,0,1,.17-.15.44.44,0,0,1,.24,0A.49.49,0,0,1,36.74,8.63Z"/><path class="cls-2" d="M43,3a.71.71,0,0,0-.48.2.59.59,0,0,0-.19.47.74.74,0,0,0,.28.52,4.37,4.37,0,0,0,.51.34q.27.15.27.24a.06.06,0,0,1,0,0l-.06,0a1.83,1.83,0,0,1-.8-.43.24.24,0,0,0-.1.08.16.16,0,0,0,0,.11q0,.11.37.24a1.45,1.45,0,0,0,.47.12.36.36,0,0,0,.2-.06.2.2,0,0,0,.08-.18q0-.12-.28-.32L43,4.28l-.19-.13a.56.56,0,0,0,.25,0A.53.53,0,0,0,43.46,4a.59.59,0,0,0,.14-.43A.56.56,0,0,0,43,3Zm.27.91a.35.35,0,0,1-.3.19q-.35,0-.37-.43a.71.71,0,0,1,.1-.38.37.37,0,0,1,.3-.23.29.29,0,0,1,.27.16.6.6,0,0,1,.1.31A.66.66,0,0,1,43.26,3.93Z"/><path class="cls-2" d="M38.7.5a.71.71,0,0,0-.3-.43.59.59,0,0,0-.5-.09.74.74,0,0,0-.45.39,4.37,4.37,0,0,0-.23.56q-.09.29-.18.32l-.05,0a.1.1,0,0,1,0-.05,1.83,1.83,0,0,1,.26-.87.24.24,0,0,0-.09-.08.16.16,0,0,0-.11,0q-.11,0-.16.41a1.45,1.45,0,0,0,0,.49.36.36,0,0,0,.1.18.2.2,0,0,0,.19,0q.12,0,.25-.34l.09-.22.09-.22a.56.56,0,0,0,0,.25.53.53,0,0,0,.27.36.59.59,0,0,0,.45,0A.58.58,0,0,0,38.65,1,.59.59,0,0,0,38.7.5ZM37.87,1A.35.35,0,0,1,37.61.7Q37.53.36,38,.25a.71.71,0,0,1,.39,0,.37.37,0,0,1,.28.25.29.29,0,0,1-.1.29.6.6,0,0,1-.28.16A.66.66,0,0,1,37.87,1Z"/><path class="cls-2" d="M62.34,15.44a.71.71,0,0,0,.25-.45.59.59,0,0,0-.14-.49.74.74,0,0,0-.54-.24,4.37,4.37,0,0,0-.61,0q-.31,0-.36,0a.06.06,0,0,1,0-.06.1.1,0,0,1,0-.05,1.83,1.83,0,0,1,.9-.15.24.24,0,0,0,0-.12.16.16,0,0,0,0-.11q-.07-.08-.44,0A1.45,1.45,0,0,0,61,14a.36.36,0,0,0-.12.17.2.2,0,0,0,0,.19q.08.09.41.08h.47a.56.56,0,0,0-.22.12.53.53,0,0,0-.2.4.59.59,0,0,0,.15.43.56.56,0,0,0,.83.06Zm-.78-.55a.35.35,0,0,1,.12-.34q.27-.23.55.11a.71.71,0,0,1,.16.36.37.37,0,0,1-.1.36.29.29,0,0,1-.31,0,.6.6,0,0,1-.27-.18A.66.66,0,0,1,61.56,14.88Z"/><path class="cls-2" d="M62.79,21.75a.71.71,0,0,0,0-.52.59.59,0,0,0-.35-.36.74.74,0,0,0-.59.05,4.37,4.37,0,0,0-.51.33q-.25.19-.33.15a.06.06,0,0,1,0,0,.1.1,0,0,1,0-.06q.07-.19.72-.56a.24.24,0,0,0,0-.12.16.16,0,0,0-.08-.08q-.1,0-.37.24a1.45,1.45,0,0,0-.3.39.36.36,0,0,0,0,.2.2.2,0,0,0,.13.15q.11,0,.4-.13l.2-.12.2-.12a.56.56,0,0,0-.14.21.53.53,0,0,0,0,.45.59.59,0,0,0,.34.3.56.56,0,0,0,.76-.34Zm-.95-.11a.35.35,0,0,1-.06-.36q.13-.33.54-.17a.71.71,0,0,1,.31.24.37.37,0,0,1,.09.37.29.29,0,0,1-.25.18.6.6,0,0,1-.32,0A.66.66,0,0,1,61.84,21.64Z"/><path class="cls-2" d="M50.39,8.87a.62.62,0,0,0-.4.21.51.51,0,0,0-.12.42.64.64,0,0,0,.29.43,3.8,3.8,0,0,0,.47.25q.25.11.26.19a.05.05,0,0,1,0,0l0,0a1.59,1.59,0,0,1-.73-.31.21.21,0,0,0-.08.07.14.14,0,0,0,0,.09q0,.1.34.18a1.26,1.26,0,0,0,.42.06.31.31,0,0,0,.16-.07.18.18,0,0,0,.06-.16q0-.1-.27-.25l-.18-.1-.18-.1a.49.49,0,0,0,.22,0,.46.46,0,0,0,.34-.2A.51.51,0,0,0,51,9.3a.49.49,0,0,0-.58-.43Zm.31.77a.31.31,0,0,1-.25.19q-.3,0-.35-.34a.62.62,0,0,1,.05-.34.32.32,0,0,1,.24-.22.25.25,0,0,1,.24.12.52.52,0,0,1,.11.26A.57.57,0,0,1,50.71,9.63Z"/><path class="cls-2" d="M60.64,31.65a.71.71,0,0,0-.05-.52.59.59,0,0,0-.39-.32.74.74,0,0,0-.58.12,4.37,4.37,0,0,0-.47.38q-.23.21-.31.19a.06.06,0,0,1,0,0,.1.1,0,0,1,0-.06q.05-.2.65-.64a.24.24,0,0,0,0-.11.16.16,0,0,0-.09-.07q-.11,0-.34.28a1.45,1.45,0,0,0-.25.42.36.36,0,0,0,0,.2.2.2,0,0,0,.14.13q.12,0,.38-.17l.19-.14.18-.15a.56.56,0,0,0-.12.22.53.53,0,0,0,.06.44.59.59,0,0,0,.37.26.56.56,0,0,0,.72-.42Zm-1,0a.35.35,0,0,1-.1-.35q.09-.34.52-.23a.71.71,0,0,1,.34.21.37.37,0,0,1,.13.35.29.29,0,0,1-.23.21.6.6,0,0,1-.32,0A.66.66,0,0,1,59.69,31.65Z"/><path class="cls-2" d="M27.37,11.08a.71.71,0,0,0,.36.38.59.59,0,0,0,.51,0,.74.74,0,0,0,.39-.45,4.37,4.37,0,0,0,.14-.59q0-.31.13-.34h.05l0,0a1.83,1.83,0,0,1-.12.9.24.24,0,0,0,.11.06.16.16,0,0,0,.11,0q.1,0,.1-.43a1.45,1.45,0,0,0-.06-.48A.36.36,0,0,0,29,10a.2.2,0,0,0-.19,0q-.11,0-.2.37l-.06.23-.06.23a.56.56,0,0,0,0-.25.53.53,0,0,0-.32-.32.59.59,0,0,0-.45,0,.56.56,0,0,0-.31.77Zm.76-.58a.35.35,0,0,1,.29.22q.14.32-.27.49a.71.71,0,0,1-.39,0,.37.37,0,0,1-.32-.2.29.29,0,0,1,.06-.31.6.6,0,0,1,.26-.2A.66.66,0,0,1,28.13,10.5Z"/><path class="cls-2" d="M20.69,17.83a.71.71,0,0,0-.16.49.59.59,0,0,0,.23.45.74.74,0,0,0,.58.13,4.37,4.37,0,0,0,.59-.16q.29-.1.36,0a.06.06,0,0,1,0,.05.1.1,0,0,1,0,.06,1.83,1.83,0,0,1-.85.32.24.24,0,0,0,0,.12.16.16,0,0,0,.05.1q.09.07.42-.12a1.45,1.45,0,0,0,.4-.28.36.36,0,0,0,.08-.19.2.2,0,0,0-.08-.18q-.09-.08-.42,0l-.23.06-.23.06a.56.56,0,0,0,.2-.16.53.53,0,0,0,.12-.43.59.59,0,0,0-.23-.39.56.56,0,0,0-.83.1Zm.87.39a.35.35,0,0,1-.05.36q-.22.27-.56,0a.71.71,0,0,1-.22-.32.37.37,0,0,1,0-.37.29.29,0,0,1,.29-.1.6.6,0,0,1,.3.13A.66.66,0,0,1,21.56,18.22Z"/><path class="cls-2" d="M53.39,3a.94.94,0,0,1,.39.54.71.71,0,0,1-.1.62.9.9,0,0,1-.65.35,5.61,5.61,0,0,1-.77,0q-.39,0-.45.07a.07.07,0,0,0,0,.07.14.14,0,0,0,0,.06A2.38,2.38,0,0,0,53,4.8a.3.3,0,0,1,.05.15.2.2,0,0,1,0,.14q-.08.11-.56,0a1.93,1.93,0,0,1-.59-.2.48.48,0,0,1-.18-.19.25.25,0,0,1,0-.24q.08-.12.51-.14h.59a.75.75,0,0,1-.3-.12.69.69,0,0,1-.32-.48.71.71,0,0,1,.13-.55.7.7,0,0,1,.47-.31A.78.78,0,0,1,53.39,3Zm-.9.77a.46.46,0,0,0,.2.41q.37.25.68-.2a.85.85,0,0,0,.14-.47.47.47,0,0,0-.18-.44.37.37,0,0,0-.39,0,.71.71,0,0,0-.31.26A.79.79,0,0,0,52.5,3.76Z"/><path class="cls-2" d="M27.81,18a.44.44,0,0,0,.11.3.36.36,0,0,0,.29.13.46.46,0,0,0,.33-.16,2.71,2.71,0,0,0,.22-.31q.1-.16.16-.16l0,0a.06.06,0,0,1,0,0,1.14,1.14,0,0,1-.29.49.15.15,0,0,0,0,.06l.06,0s.1-.07.16-.22A.9.9,0,0,0,29,17.9a.22.22,0,0,0,0-.12.13.13,0,0,0-.11-.06s-.12.06-.2.17l-.09.12-.09.12a.35.35,0,0,0,0-.15.33.33,0,0,0-.11-.26.37.37,0,0,0-.26-.1.35.35,0,0,0-.36.37Zm.57-.15a.22.22,0,0,1,.11.19q0,.22-.27.22a.44.44,0,0,1-.23-.07.23.23,0,0,1-.13-.19.18.18,0,0,1,.11-.16.37.37,0,0,1,.19-.05A.41.41,0,0,1,28.38,17.83Z"/><path class="cls-2" d="M23.22,18.15a.37.37,0,0,0,0,.26.3.3,0,0,0,.21.15.38.38,0,0,0,.3-.08l.23-.21q.11-.12.16-.11l0,0a.05.05,0,0,1,0,0q0,.1-.31.35a.12.12,0,0,0,0,.06l0,0s.09,0,.17-.15a.75.75,0,0,0,.12-.22.19.19,0,0,0,0-.11.11.11,0,0,0-.08-.06s-.11,0-.19.1l-.09.08-.09.08a.29.29,0,0,0,.05-.12.27.27,0,0,0,0-.23.31.31,0,0,0-.2-.12.29.29,0,0,0-.36.24Zm.49,0a.18.18,0,0,1,.06.18q0,.18-.26.13a.37.37,0,0,1-.18-.1.19.19,0,0,1-.08-.18.15.15,0,0,1,.11-.11.31.31,0,0,1,.17,0A.34.34,0,0,1,23.71,18.12Z"/><path class="cls-2" d="M34.83,7.65a.53.53,0,0,0,.34-.19.44.44,0,0,0,.1-.36A.55.55,0,0,0,35,6.74a3.25,3.25,0,0,0-.4-.21q-.21-.09-.22-.16a0,0,0,0,1,0,0l0,0a1.36,1.36,0,0,1,.63.25.18.18,0,0,0,.06-.06.12.12,0,0,0,0-.08q0-.08-.29-.15a1.08,1.08,0,0,0-.36,0,.27.27,0,0,0-.14.06.15.15,0,0,0,0,.14q0,.09.23.21l.15.08.15.08a.42.42,0,0,0-.19,0,.39.39,0,0,0-.29.17.44.44,0,0,0-.07.33.42.42,0,0,0,.5.37ZM34.55,7a.26.26,0,0,1,.21-.17q.26,0,.31.29a.53.53,0,0,1,0,.29.27.27,0,0,1-.2.19.22.22,0,0,1-.21-.1.44.44,0,0,1-.1-.22A.49.49,0,0,1,34.55,7Z"/><path class="cls-2" d="M50.36,4.12l.05,0,.06,0q.24,0,.24.45s0,.07,0,.11v.12l-.11.1-.11.1q-.16.14-.16.24a.17.17,0,0,0,0,.11.14.14,0,0,0,.11.05.22.22,0,0,0,.19-.11l.05-.1.05-.1L51,4.78l.24-.25q0,.1,0,.18,0,.67.37.67a.4.4,0,0,0,.17,0q.11,0,.11-.12a.22.22,0,0,0-.07-.14A.17.17,0,0,0,51.69,5h0l0,0,0,0h0q-.13,0-.17-.25a2.71,2.71,0,0,1,0-.35l.14-.12.13-.12a.47.47,0,0,0,.17-.3.18.18,0,0,0,0-.11.13.13,0,0,0-.1,0,.25.25,0,0,0-.21.13l-.12.23a5,5,0,0,1-.51.55,3.19,3.19,0,0,0,0-.32q0-.58-.32-.58a.24.24,0,0,0-.16.06.2.2,0,0,0-.07.16Q50.26,4.12,50.36,4.12Z"/><path class="cls-2" d="M39.71,0h.08q.15,0,.06.33l0,.07,0,.07-.09,0-.09,0q-.13.06-.14.12a.11.11,0,0,0,0,.08.09.09,0,0,0,.06.06.15.15,0,0,0,.14,0l.05-.05L39.77.7,40,.58l.2-.11,0,.11q-.13.42.1.49h.12q.08,0,.09-.05a.14.14,0,0,0,0-.1s0-.07-.06-.07h-.11q-.08,0-.06-.19a1.78,1.78,0,0,1,.05-.23L40.36.4l.11,0A.31.31,0,0,0,40.64.2a.12.12,0,0,0,0-.08.08.08,0,0,0-.06-.05.16.16,0,0,0-.16,0L40.3.23a3.27,3.27,0,0,1-.42.24,2.09,2.09,0,0,0,.08-.2q.11-.36-.08-.42a.16.16,0,0,0-.12,0,.13.13,0,0,0-.08.08Q39.65,0,39.71,0Z"/><path class="cls-2" d="M33.9,1.64l.05,0,.06,0q.15.23-.29.53l-.11.07-.13.07-.17-.05-.17,0a.45.45,0,0,0-.33,0,.2.2,0,0,0-.08.12.17.17,0,0,0,0,.14.26.26,0,0,0,.23.11h.26l.44.07.4.07-.18.11q-.66.43-.42.79a.48.48,0,0,0,.16.14q.12.08.19,0a.26.26,0,0,0,.09-.16.2.2,0,0,0,0-.17l0,0-.05,0-.05,0,0,0q-.09-.13.13-.33a3.21,3.21,0,0,1,.33-.26l.21.06.21.05a.55.55,0,0,0,.41,0,.21.21,0,0,0,.09-.11.15.15,0,0,0,0-.14.29.29,0,0,0-.27-.13l-.31,0a5.9,5.9,0,0,1-.87-.14L34,2.23q.57-.38.37-.69a.28.28,0,0,0-.17-.12.24.24,0,0,0-.2,0Q33.84,1.53,33.9,1.64Z"/><path class="cls-2" d="M45.53,7.65a.09.09,0,0,0,0,0,.1.1,0,0,1,0,.05q0,.21-.42.18h-.1l-.11,0-.08-.11-.08-.11q-.12-.15-.2-.15a.15.15,0,0,0-.1,0,.12.12,0,0,0-.05.09.2.2,0,0,0,.09.17l.08.05.08.05.23.24.2.22-.16,0q-.59,0-.61.28a.36.36,0,0,0,0,.15q0,.1.1.11a.2.2,0,0,0,.13-.05.15.15,0,0,0,.08-.1.07.07,0,0,0,0,0l0,0,0,0v0c0-.09.08-.13.23-.15h.31l.1.13.1.13a.41.41,0,0,0,.25.17.16.16,0,0,0,.1,0,.11.11,0,0,0,.05-.09.22.22,0,0,0-.1-.2l-.2-.12A4.42,4.42,0,0,1,45,8l.29,0q.51,0,.53-.24a.21.21,0,0,0,0-.15.18.18,0,0,0-.13-.07Q45.54,7.56,45.53,7.65Z"/><path class="cls-2" d="M52.09,10.72a.09.09,0,0,0,0,0,.1.1,0,0,1,0,.05q0,.21-.42.18h-.1l-.11,0-.08-.11-.08-.11q-.12-.15-.2-.15a.15.15,0,0,0-.1,0,.12.12,0,0,0-.05.09.2.2,0,0,0,.09.17l.08.05.08.05.23.24.2.22-.16,0q-.59,0-.61.28a.36.36,0,0,0,0,.15q0,.1.1.11a.2.2,0,0,0,.13-.05.15.15,0,0,0,.08-.1.07.07,0,0,0,0,0l0,0,0,0v0c0-.09.08-.13.23-.15h.31l.1.13.1.13a.41.41,0,0,0,.25.17.16.16,0,0,0,.1,0,.11.11,0,0,0,.05-.09.22.22,0,0,0-.1-.2l-.2-.12a4.42,4.42,0,0,1-.45-.48l.29,0q.51,0,.53-.24a.21.21,0,0,0,0-.15.18.18,0,0,0-.13-.07Q52.1,10.63,52.09,10.72Z"/><path class="cls-2" d="M39.24,8.38l0,0,0,0q.12,0,.21.18l0,.06,0,.06,0,.07,0,.07a.2.2,0,0,0,0,.15.09.09,0,0,0,0,0,.08.08,0,0,0,.07,0,.12.12,0,0,0,.07-.09V8.76l.07-.19.07-.17,0,.09q.14.33.32.26l.08-.06s0-.06,0-.08a.12.12,0,0,0-.06-.06.09.09,0,0,0-.08,0h0l0,0,0,0h0s-.09,0-.14-.09l-.09-.17,0-.09,0-.09a.25.25,0,0,0,0-.18.09.09,0,0,0,0,0H39.8a.13.13,0,0,0-.08.11v.14a2.68,2.68,0,0,1-.14.38l-.06-.16q-.12-.29-.28-.22a.13.13,0,0,0-.07.07.11.11,0,0,0,0,.09S39.21,8.39,39.24,8.38Z"/><path class="cls-2" d="M31.16,3.65l0,0,0,0q.16-.07.3.24l0,.08,0,.09-.05.1,0,.1a.29.29,0,0,0,0,.21.13.13,0,0,0,.07.07.11.11,0,0,0,.09,0,.17.17,0,0,0,.1-.13V4.17l.09-.27.09-.24,0,.13q.2.46.46.35a.3.3,0,0,0,.1-.08s.05-.08,0-.12a.17.17,0,0,0-.09-.08.13.13,0,0,0-.11,0l0,0,0,0,0,0,0,0q-.09,0-.2-.12a2.05,2.05,0,0,1-.13-.23L32,3.46,32,3.34a.35.35,0,0,0,0-.26A.13.13,0,0,0,32,3a.1.1,0,0,0-.09,0,.19.19,0,0,0-.11.15s0,.07,0,.2a3.77,3.77,0,0,1-.18.53,2.41,2.41,0,0,0-.09-.23q-.18-.4-.39-.3a.18.18,0,0,0-.09.09.15.15,0,0,0,0,.13Q31.09,3.68,31.16,3.65Z"/><path class="cls-2" d="M57.43,13.49l0,0,0,0q.16-.13.41.19l.06.08.06.09,0,.13,0,.13a.33.33,0,0,0,0,.25.15.15,0,0,0,.09.05.12.12,0,0,0,.11,0,.19.19,0,0,0,.07-.18l0-.1,0-.1q0-.17,0-.33l0-.3.09.13q.36.46.61.27a.35.35,0,0,0,.09-.12q.05-.09,0-.14a.19.19,0,0,0-.12-.06.15.15,0,0,0-.13,0l0,0v.08l0,0q-.09.07-.25-.08l-.21-.23,0-.16,0-.15a.41.41,0,0,0,0-.3.15.15,0,0,0-.09-.06.11.11,0,0,0-.1,0,.22.22,0,0,0-.08.2l0,.23a4.36,4.36,0,0,1-.06.65l-.16-.23q-.31-.4-.53-.23a.21.21,0,0,0-.08.13.18.18,0,0,0,0,.15Q57.36,13.55,57.43,13.49Z"/><path class="cls-2" d="M56.51,21.56l0,0,0,0q-.07-.21.34-.34l.1,0,.11,0,.12.08.12.07a.35.35,0,0,0,.26.07.16.16,0,0,0,.09-.07.13.13,0,0,0,0-.11.21.21,0,0,0-.15-.14l-.1,0-.1,0-.32-.15-.29-.14.16,0q.6-.19.49-.52a.38.38,0,0,0-.09-.14q-.08-.08-.14-.06a.21.21,0,0,0-.11.1.16.16,0,0,0,0,.13l0,0,0,0,0,0,0,0q0,.12-.17.23l-.31.13-.15-.09-.15-.09a.44.44,0,0,0-.32-.07.17.17,0,0,0-.09.07.12.12,0,0,0,0,.11.23.23,0,0,0,.18.15l.24,0a4.69,4.69,0,0,1,.64.3l-.3.08q-.52.17-.43.45a.22.22,0,0,0,.1.13.19.19,0,0,0,.16,0Q56.54,21.65,56.51,21.56Z"/><path class="cls-2" d="M58.31,9.59l0,0-.05,0q-.14-.17.19-.44L58.5,9l.1-.06.14,0,.14,0a.35.35,0,0,0,.27,0,.16.16,0,0,0,.06-.1.13.13,0,0,0,0-.11A.21.21,0,0,0,59,8.72l-.1,0-.1,0-.35,0-.32,0,.14-.1q.49-.39.27-.66a.38.38,0,0,0-.13-.1q-.1-.05-.15,0a.21.21,0,0,0-.06.13.16.16,0,0,0,0,.14l0,0,0,0h0l0,0q.08.1-.08.27L58,8.68l-.17,0-.17,0a.44.44,0,0,0-.32,0,.17.17,0,0,0-.06.1.12.12,0,0,0,0,.11.23.23,0,0,0,.22.08l.24,0a4.69,4.69,0,0,1,.7,0l-.25.18q-.42.34-.24.57a.22.22,0,0,0,.14.08.19.19,0,0,0,.16,0Q58.38,9.67,58.31,9.59Z"/><path class="cls-2" d="M27.39,19.21a.07.07,0,0,0,0,0,.07.07,0,0,1,0,0q0-.14.33,0l.07,0,.07,0,0,.09,0,.09q.05.13.11.15h.08a.09.09,0,0,0,.06-.06.14.14,0,0,0,0-.14l0-.05,0-.05L27.92,19l-.1-.2.11,0q.41.14.48-.08a.26.26,0,0,0,0-.11q0-.08-.05-.09a.14.14,0,0,0-.1,0s-.07,0-.07.06a.05.05,0,0,0,0,0v.06a0,0,0,0,1,0,0q0,.08-.19.06l-.22-.05,0-.11,0-.11a.3.3,0,0,0-.15-.17h-.08a.08.08,0,0,0-.05.05.16.16,0,0,0,0,.16l.12.12a3.23,3.23,0,0,1,.23.43L27.62,19q-.35-.12-.42.07a.15.15,0,0,0,0,.11.13.13,0,0,0,.08.08Q27.36,19.28,27.39,19.21Z"/><path class="cls-2" d="M22.33,18.11v0s.11,0,.2.07l0,0,0,0v.12a.15.15,0,0,0,0,.12l0,0h0a.09.09,0,0,0,0-.08v-.09q0-.08,0-.15V18l0,.06q.18.2.29.1l0-.06s0-.05,0-.07L23,18H23v0h0s-.07,0-.12,0l-.11-.1V17.8a.19.19,0,0,0,0-.14l0,0h0a.1.1,0,0,0,0,.1l0,.1a2,2,0,0,1,0,.31l-.08-.1q-.16-.18-.26-.09a.1.1,0,0,0,0,.06.08.08,0,0,0,0,.07S22.31,18.13,22.33,18.11Z"/><path class="cls-2" d="M53.11,13.73a.45.45,0,0,0,.41.23.88.88,0,0,0,.47-.16,1,1,0,0,0,.35-.39.42.42,0,0,0,0-.48l0,0a1.32,1.32,0,0,1-.52.6.9.9,0,0,1-.33.14.27.27,0,0,1-.31-.09.2.2,0,0,1,0-.18.28.28,0,0,1,.11-.16l.11,0a.65.65,0,0,0,.17-.07q.21-.14.12-.27t-.24,0a.57.57,0,0,0-.12.13l-.12.12a.21.21,0,0,1-.17,0,.2.2,0,0,1-.14-.08q-.14-.21.29-.49a1.11,1.11,0,0,1,.3-.12l.23-.08s0-.06,0-.14a.33.33,0,0,0,0-.14q-.06-.09-.34,0a2.36,2.36,0,0,0-.36.19.85.85,0,0,0-.31.33.41.41,0,0,0,0,.44.37.37,0,0,0,.38.17A.44.44,0,0,0,53.11,13.73Z"/><path class="cls-2" d="M51.57,7.63a.45.45,0,0,0-.44-.17.88.88,0,0,0-.44.22,1,1,0,0,0-.3.43.42.42,0,0,0,0,.48l0,0a1.32,1.32,0,0,1,.44-.66.9.9,0,0,1,.31-.18.27.27,0,0,1,.32,0,.2.2,0,0,1,0,.18.28.28,0,0,1-.09.17l-.1,0a.65.65,0,0,0-.16.1q-.19.16-.08.28t.24,0a.57.57,0,0,0,.11-.14.62.62,0,0,1,.1-.13.21.21,0,0,1,.16,0,.2.2,0,0,1,.15.07q.16.19-.23.52a1.11,1.11,0,0,1-.28.16l-.22.11s0,.06,0,.14a.33.33,0,0,0,.06.13q.07.08.34-.07A2.36,2.36,0,0,0,51.85,9a.85.85,0,0,0,.27-.36A.41.41,0,0,0,52,8.24a.37.37,0,0,0-.4-.12A.44.44,0,0,0,51.57,7.63Z"/><path class="cls-2" d="M59.85,22.21a.34.34,0,0,0,.32.15.65.65,0,0,0,.34-.14.78.78,0,0,0,.24-.31.31.31,0,0,0,0-.35h0a1,1,0,0,1-.35.47.67.67,0,0,1-.24.12.2.2,0,0,1-.23,0,.15.15,0,0,1,0-.13.21.21,0,0,1,.07-.13l.08,0,.13-.06q.15-.11.07-.21t-.18,0a.43.43,0,0,0-.09.1l-.08.09a.16.16,0,0,1-.12,0,.15.15,0,0,1-.11-.05q-.11-.15.19-.38a.82.82,0,0,1,.21-.1l.17-.07s0,0,0-.1a.24.24,0,0,0,0-.1s-.11,0-.25,0a1.76,1.76,0,0,0-.26.16.63.63,0,0,0-.21.26.3.3,0,0,0,0,.32.28.28,0,0,0,.29.11A.33.33,0,0,0,59.85,22.21Z"/><path class="cls-2" d="M46.08,1.45a.29.29,0,0,0,.3,0,.55.55,0,0,0,.22-.22.66.66,0,0,0,.09-.31.26.26,0,0,0-.12-.28h0a.83.83,0,0,1-.13.48.57.57,0,0,1-.15.17.17.17,0,0,1-.2,0,.13.13,0,0,1-.06-.1.17.17,0,0,1,0-.12l.05,0L46.18,1q.08-.13,0-.18s-.09,0-.14.06A.36.36,0,0,0,46,1a.39.39,0,0,1,0,.1.13.13,0,0,1-.09.06.13.13,0,0,1-.1,0q-.13-.08,0-.36a.7.7,0,0,1,.14-.15L46.06.5s0,0,0-.08L46,.35s-.1,0-.19.11a1.49,1.49,0,0,0-.15.2.53.53,0,0,0-.09.27.26.26,0,0,0,.14.24.23.23,0,0,0,.27,0A.28.28,0,0,0,46.08,1.45Z"/><path class="cls-2" d="M28.17,5.53A.22.22,0,0,0,28,5.45a.42.42,0,0,0-.21.11.5.5,0,0,0-.14.21.2.2,0,0,0,0,.23h0a.63.63,0,0,1,.2-.32A.43.43,0,0,1,28,5.6a.13.13,0,0,1,.15,0,.1.1,0,0,1,0,.08.13.13,0,0,1,0,.08l0,0-.08,0q-.09.08,0,.14s.07,0,.11,0l0-.07,0-.06a.1.1,0,0,1,.08,0,.1.1,0,0,1,.07,0q.08.09-.1.25l-.13.08-.1.05s0,0,0,.07a.16.16,0,0,0,0,.06s.07,0,.16,0l.16-.11A.4.4,0,0,0,28.44,6a.19.19,0,0,0,0-.2.18.18,0,0,0-.19-.06A.21.21,0,0,0,28.17,5.53Z"/><path class="cls-2" d="M20.58,20.21a.3.3,0,0,0,.28.14.58.58,0,0,0,.3-.12.69.69,0,0,0,.22-.26.27.27,0,0,0,0-.31h0A.87.87,0,0,1,21,20a.59.59,0,0,1-.21.1.18.18,0,0,1-.21,0,.13.13,0,0,1,0-.12.18.18,0,0,1,.07-.11l.07,0,.11-.05q.13-.09.07-.18s-.09,0-.16,0l-.08.09-.07.08a.14.14,0,0,1-.11,0,.13.13,0,0,1-.09-.05q-.09-.13.18-.33a.73.73,0,0,1,.19-.08l.15-.06s0,0,0-.09a.22.22,0,0,0,0-.09s-.1,0-.22,0l-.23.13a.56.56,0,0,0-.2.22.27.27,0,0,0,0,.29.24.24,0,0,0,.26.11A.29.29,0,0,0,20.58,20.21Z"/><path class="cls-2" d="M61.85,20.16a.68.68,0,0,0,.49.51,1.33,1.33,0,0,0,.74,0,1.57,1.57,0,0,0,.68-.4.63.63,0,0,0,.25-.67l0,0a2,2,0,0,1-1,.63,1.35,1.35,0,0,1-.54,0q-.34,0-.41-.26a.31.31,0,0,1,.06-.26.42.42,0,0,1,.23-.18h.16a1,1,0,0,0,.28,0q.36-.1.29-.33T62.73,19a.86.86,0,0,0-.24.13.94.94,0,0,1-.22.12.32.32,0,0,1-.25,0,.31.31,0,0,1-.16-.18q-.1-.36.64-.57a1.67,1.67,0,0,1,.48,0,2,2,0,0,0,.37,0s.07-.07.1-.18a.5.5,0,0,0,0-.21q0-.15-.5-.12a3.55,3.55,0,0,0-.6.1,1.28,1.28,0,0,0-.6.33.62.62,0,0,0-.16.64.56.56,0,0,0,.47.42A.67.67,0,0,0,61.85,20.16Z"/><path class="cls-2" d="M62.43,25.69a.58.58,0,0,0,.42.44,1.13,1.13,0,0,0,.63,0,1.34,1.34,0,0,0,.58-.34.54.54,0,0,0,.21-.57v0a1.69,1.69,0,0,1-.86.53,1.15,1.15,0,0,1-.46,0q-.29,0-.35-.22a.26.26,0,0,1,.05-.22.35.35,0,0,1,.2-.15H63a.83.83,0,0,0,.24,0q.3-.09.25-.29t-.29-.09a.73.73,0,0,0-.2.11.8.8,0,0,1-.19.1.27.27,0,0,1-.21,0,.26.26,0,0,1-.13-.15q-.09-.3.55-.48a1.42,1.42,0,0,1,.41,0h.31s.06-.06.09-.15a.42.42,0,0,0,0-.18q0-.13-.43-.1a3,3,0,0,0-.51.09,1.09,1.09,0,0,0-.51.28.52.52,0,0,0-.13.55.48.48,0,0,0,.4.36A.57.57,0,0,0,62.43,25.69Z"/><path class="cls-2" d="M34.1,4.89a.27.27,0,0,0,.16.23.52.52,0,0,0,.29,0A.61.61,0,0,0,34.84,5,.25.25,0,0,0,35,4.8h0a.78.78,0,0,1-.43.18.53.53,0,0,1-.21,0q-.13,0-.14-.13a.12.12,0,0,1,0-.1.16.16,0,0,1,.1-.06h.17q.14,0,.13-.11t-.13-.06l-.1,0-.09,0a.12.12,0,0,1-.09,0,.12.12,0,0,1-.05-.08q0-.14.28-.18h.19l.14,0s0,0,0-.06a.19.19,0,0,0,0-.08s-.07-.06-.19-.07h-.24a.5.5,0,0,0-.25.09.24.24,0,0,0-.1.24.22.22,0,0,0,.16.19A.26.26,0,0,0,34.1,4.89Z"/><path class="cls-2" d="M26.2,11.72a.6.6,0,0,0,.57-.23,1.15,1.15,0,0,0,.22-.61,1.37,1.37,0,0,0-.11-.68q-.16-.4-.47-.42h0a1.73,1.73,0,0,1,.18,1,1.18,1.18,0,0,1-.13.45q-.13.27-.34.25a.27.27,0,0,1-.19-.14.36.36,0,0,1-.07-.25l.06-.13a.85.85,0,0,0,.07-.24q0-.32-.18-.34t-.2.24a.75.75,0,0,0,0,.23.82.82,0,0,1,0,.21.28.28,0,0,1-.11.19.27.27,0,0,1-.2.07q-.32,0-.25-.7a1.45,1.45,0,0,1,.12-.4,1.7,1.7,0,0,0,.11-.3s0-.08-.11-.14A.43.43,0,0,0,25,9.74q-.13,0-.25.37a3.1,3.1,0,0,0-.11.52,1.11,1.11,0,0,0,.08.59.54.54,0,0,0,.47.33.49.49,0,0,0,.49-.25A.58.58,0,0,0,26.2,11.72Z"/><path class="cls-2" d="M56.92,8a.6.6,0,0,0,.62,0,1.15,1.15,0,0,0,.41-.51,1.37,1.37,0,0,0,.12-.67.55.55,0,0,0-.31-.54h0a1.73,1.73,0,0,1-.15,1,1.18,1.18,0,0,1-.27.38.35.35,0,0,1-.4.12.27.27,0,0,1-.14-.19.36.36,0,0,1,0-.26l.1-.1A.85.85,0,0,0,57,7q.13-.29-.06-.38t-.27.17a.75.75,0,0,0,0,.23.82.82,0,0,1,0,.21.28.28,0,0,1-.16.15.27.27,0,0,1-.21,0q-.29-.13,0-.75a1.45,1.45,0,0,1,.25-.34,1.7,1.7,0,0,0,.2-.25s0-.09-.06-.17a.43.43,0,0,0-.14-.12q-.12-.06-.36.27a3.1,3.1,0,0,0-.27.46,1.11,1.11,0,0,0-.12.58.54.54,0,0,0,.34.47.49.49,0,0,0,.55-.08A.58.58,0,0,0,56.92,8Z"/><path class="cls-2" d="M60.3,30.52a.38.38,0,0,0,.34-.21.74.74,0,0,0,.07-.41.88.88,0,0,0-.14-.42.35.35,0,0,0-.34-.21h0a1.11,1.11,0,0,1,.23.63.76.76,0,0,1,0,.3q-.05.18-.19.19a.17.17,0,0,1-.14-.06.23.23,0,0,1-.07-.15l0-.09a.55.55,0,0,0,0-.16q0-.21-.15-.2t-.1.18a.48.48,0,0,0,0,.14.53.53,0,0,1,0,.13.18.18,0,0,1,0,.13.17.17,0,0,1-.12.07q-.21,0-.24-.42a.94.94,0,0,1,0-.27,1.09,1.09,0,0,0,0-.2s0,0-.09-.08l-.12,0q-.09,0-.12.26a2,2,0,0,0,0,.34.72.72,0,0,0,.11.36.35.35,0,0,0,.34.16.31.31,0,0,0,.29-.21A.37.37,0,0,0,60.3,30.52Z"/><path class="cls-2" d="M28.82,20.68a.35.35,0,0,0,.35-.05.67.67,0,0,0,.21-.31.79.79,0,0,0,0-.4q0-.25-.21-.3h0a1,1,0,0,1,0,.6.68.68,0,0,1-.14.24q-.11.13-.23.09a.15.15,0,0,1-.09-.1.21.21,0,0,1,0-.15l.05-.06a.5.5,0,0,0,.07-.13q.06-.18-.05-.22t-.14.11a.44.44,0,0,0,0,.13.47.47,0,0,1,0,.12.16.16,0,0,1-.09.09.15.15,0,0,1-.12,0q-.18-.06,0-.43a.84.84,0,0,1,.12-.21l.1-.16s0-.05,0-.09l-.09-.06s-.11,0-.19.17a1.79,1.79,0,0,0-.13.28.65.65,0,0,0,0,.34.31.31,0,0,0,.22.25.28.28,0,0,0,.31-.07A.34.34,0,0,0,28.82,20.68Z"/><path class="cls-2" d="M23.66,20.26a.29.29,0,0,0,.09.29.56.56,0,0,0,.29.13.66.66,0,0,0,.33,0q.2-.06.22-.21v0a.84.84,0,0,1-.5,0,.57.57,0,0,1-.21-.08q-.12-.08-.1-.18a.13.13,0,0,1,.07-.09.18.18,0,0,1,.12,0l.06,0,.11,0q.15,0,.17-.07T24.2,20H24a.13.13,0,0,1-.09-.06.13.13,0,0,1,0-.1q0-.15.35-.09a.71.71,0,0,1,.19.08l.14.07s0,0,.07,0a.21.21,0,0,0,0-.08s0-.09-.17-.14l-.25-.07a.54.54,0,0,0-.29,0,.26.26,0,0,0-.18.21.24.24,0,0,0,.1.25A.28.28,0,0,0,23.66,20.26Z"/><path class="cls-2" d="M44,8l-.46.16-.32.13.08-.11L43.44,8l.11-.17.07-.14q.07-.17,0-.24l0,0h-.08l0,0s0,0,0,.08,0,.06,0,.08a.62.62,0,0,1,0,.06.42.42,0,0,1,0,.09l0,.09-.21.33a1.54,1.54,0,0,0-.18.4A.35.35,0,0,0,43.1,9l.07,0a.07.07,0,0,0,.08,0,.11.11,0,0,0,0-.07.14.14,0,0,0,0-.08.71.71,0,0,1-.14-.17.18.18,0,0,1,.06-.21,5.47,5.47,0,0,1,1-.37Z"/><path class="cls-2" d="M50.38,11.41,50.16,11l-.17-.3.12.07.13.07.18.08.15,0q.18,0,.24,0v0a.12.12,0,0,0,0,0l0,0,0,0h-.08l-.08,0h-.16l-.09,0L50,10.61a1.54,1.54,0,0,0-.42-.13.35.35,0,0,0-.33.11.23.23,0,0,0,0,.07.07.07,0,0,0,0,.08.11.11,0,0,0,.08,0,.14.14,0,0,0,.07-.05.71.71,0,0,1,.15-.16.18.18,0,0,1,.22,0,5.47,5.47,0,0,1,.49,1Z"/><path class="cls-2" d="M42.4,4.24l-.31.11-.22.09.06-.08L42,4.28,42,4.16l0-.1q0-.12,0-.17H42s0,0,0,.05V4a.42.42,0,0,1,0,0,.29.29,0,0,1,0,.06l0,.06-.14.23a1.06,1.06,0,0,0-.12.28.24.24,0,0,0,0,.24l0,0a0,0,0,0,0,.05,0,.07.07,0,0,0,0-.05.09.09,0,0,0,0-.05.49.49,0,0,1-.09-.12.12.12,0,0,1,0-.15,3.77,3.77,0,0,1,.7-.25Z"/><path class="cls-2" d="M30.55,14l-.41.45-.27.34,0-.17,0-.18q0-.14,0-.25a1.4,1.4,0,0,0,0-.2q0-.23-.15-.27h0l0,0,0,0,0,0s0,0,0,.09l.05.09,0,.07a.52.52,0,0,1,0,.11.64.64,0,0,1,0,.11l0,.49a1.93,1.93,0,0,0,0,.55.43.43,0,0,0,.28.33h.1s.07,0,.08-.05a.13.13,0,0,0,0-.11.17.17,0,0,0-.09-.06.89.89,0,0,1-.25-.1.22.22,0,0,1-.06-.27,6.84,6.84,0,0,1,.89-1Z"/><path class="cls-2" d="M34.42,3.12q0,.19.05.33t0,.23l-.07-.07-.07-.07-.1-.09-.09-.06q-.11-.07-.16,0l0,0v0a.09.09,0,0,0,0,0v0h.15l.06,0,.05,0,.2.18a1.06,1.06,0,0,0,.25.17.24.24,0,0,0,.24,0l0,0a0,0,0,0,0,0-.05s0,0,0,0l-.06,0-.13.07a.12.12,0,0,1-.14-.07A3.76,3.76,0,0,1,34.53,3Z"/><path class="cls-2" d="M28.92,8.22l-.24.47q-.1.2-.15.34l0-.15,0-.15q0-.12,0-.21a1.22,1.22,0,0,0-.05-.16q-.08-.19-.19-.19h0l0,0,0,0a.12.12,0,0,0,0,0s0,0,.05.06l.07.06,0,0,.06.08,0,.09.09.42a1.68,1.68,0,0,0,.17.45.38.38,0,0,0,.32.22H29s.06,0,.06-.06a.12.12,0,0,0,0-.09.15.15,0,0,0-.09,0,.77.77,0,0,1-.24,0,.19.19,0,0,1-.11-.21,6,6,0,0,1,.52-1.06Z"/><path class="cls-2" d="M27,19.6l-.31.45q-.13.2-.2.33,0-.08,0-.16t0-.16,0-.23a1.27,1.27,0,0,0,0-.17q-.06-.2-.16-.22h0l0,0,0,0,0,0s0,0,0,.07l.06.07,0,.06,0,.09a.58.58,0,0,1,0,.1l0,.44a1.75,1.75,0,0,0,.11.49.39.39,0,0,0,.3.26h.09s.06,0,.07-.06a.12.12,0,0,0,0-.1.15.15,0,0,0-.09,0,.8.8,0,0,1-.24-.06.2.2,0,0,1-.09-.23,6.18,6.18,0,0,1,.68-1Z"/><path class="cls-2" d="M26.41,6.21q.16.54.25.94t.14.68l.1-.26L27,7.3q.09-.21.17-.37a2.27,2.27,0,0,1,.16-.27q.21-.31.41-.27l.07,0,.05.07a.27.27,0,0,1,0,.08.23.23,0,0,1,0,.08s0,.05-.12.1l-.14.08-.1.07L27.39,7l-.11.15L27,7.9a3.12,3.12,0,0,1-.47.76.7.7,0,0,1-.66.27.47.47,0,0,1-.15-.06q-.09-.06-.08-.14a.22.22,0,0,1,.08-.16.27.27,0,0,1,.18,0,1.44,1.44,0,0,0,.44,0q.23,0,.28-.34A11.07,11.07,0,0,0,26,6.14Z"/><path class="cls-2" d="M54.49,4.47l-.46,0-.33,0,.11-.08.11-.09.15-.13.1-.11q.11-.14.07-.22l0,0h-.12s0,0,0,.07L54,4l0,.06,0,.08-.05.07-.28.26a1.57,1.57,0,0,0-.28.32.31.31,0,0,0,0,.32l0,.06a.06.06,0,0,0,.07,0s.06,0,.06-.06a.12.12,0,0,0,0-.08.6.6,0,0,1-.08-.18q0-.1.12-.18a5.55,5.55,0,0,1,1-.1Z"/><path class="cls-2" d="M60.76,18.62q-.48-.41-.82-.73t-.55-.55l.07.31.07.32q0,.25.07.45a2.55,2.55,0,0,1,0,.35q0,.42-.21.51h-.09l-.09,0-.08-.06-.05-.07s0-.08,0-.16l.08-.17.05-.13a1,1,0,0,0,0-.21,1.16,1.16,0,0,0,0-.21l-.14-.88a3.5,3.5,0,0,1,0-1,.79.79,0,0,1,.44-.66.53.53,0,0,1,.18,0,.15.15,0,0,1,.16.08.24.24,0,0,1,0,.19.31.31,0,0,1-.16.12,1.61,1.61,0,0,0-.43.24.4.4,0,0,0-.05.5,12.41,12.41,0,0,0,1.82,1.65Z"/><path class="cls-2" d="M61.68,17.73a1.28,1.28,0,0,1-.84-.4.54.54,0,0,0-.18-.13.14.14,0,0,0-.12,0,.22.22,0,0,0-.05.12q0,.23.49.37a4,4,0,0,0,.7.11,1.5,1.5,0,0,0,.79-.12.72.72,0,0,0,.43-.62.76.76,0,0,0-.17-.56.72.72,0,0,0-.52-.26.91.91,0,0,0-.64.16.76.76,0,0,0-.31.58A.72.72,0,0,0,61.68,17.73Zm.2-.18a.7.7,0,0,1-.37-.13.38.38,0,0,1-.15-.35.46.46,0,0,1,.34-.38,1.16,1.16,0,0,1,.54-.08.86.86,0,0,1,.39.11.33.33,0,0,1,.18.33.49.49,0,0,1-.34.41A1.2,1.2,0,0,1,61.88,17.55Z"/><path class="cls-2" d="M60.43,32.49a.69.69,0,0,1,.41-.3l.11-.05a.07.07,0,0,0,0-.07.12.12,0,0,0,0-.06q-.11-.07-.3.14a2.19,2.19,0,0,0-.23.3.81.81,0,0,0-.14.41.39.39,0,0,0,.18.37.41.41,0,0,0,.31.07.39.39,0,0,0,.26-.18.49.49,0,0,0,.09-.35.41.41,0,0,0-.19-.3A.39.39,0,0,0,60.43,32.49Zm0,.14a.38.38,0,0,1,.16-.14.21.21,0,0,1,.21,0,.25.25,0,0,1,.09.26.63.63,0,0,1-.1.28.47.47,0,0,1-.15.16.18.18,0,0,1-.2,0,.26.26,0,0,1-.11-.27A.65.65,0,0,1,60.47,32.64Z"/><path class="cls-2" d="M57.38,31a1.28,1.28,0,0,1-.74-.57q-.11-.15-.15-.16a.14.14,0,0,0-.13,0,.22.22,0,0,0-.08.11q-.07.22.4.46a4,4,0,0,0,.66.26,1.5,1.5,0,0,0,.79.05.72.72,0,0,0,.56-.51.76.76,0,0,0,0-.58.72.72,0,0,0-.45-.37.91.91,0,0,0-.66,0,.76.76,0,0,0-.43.49A.72.72,0,0,0,57.38,31Zm.23-.13a.7.7,0,0,1-.33-.21.38.38,0,0,1-.07-.37.46.46,0,0,1,.41-.29,1.16,1.16,0,0,1,.54,0,.86.86,0,0,1,.35.2.33.33,0,0,1,.1.36.49.49,0,0,1-.42.32A1.2,1.2,0,0,1,57.61,30.86Z"/><path class="cls-2" d="M61.53,26.5a1.28,1.28,0,0,1,.53-.77q.14-.12.15-.16a.14.14,0,0,0,0-.13.22.22,0,0,0-.11-.07q-.23-.06-.44.43a4,4,0,0,0-.22.67,1.5,1.5,0,0,0,0,.8.72.72,0,0,0,.54.53.76.76,0,0,0,.58-.07.72.72,0,0,0,.34-.47.91.91,0,0,0-.06-.65.76.76,0,0,0-.52-.4A.72.72,0,0,0,61.53,26.5Zm.15.22a.7.7,0,0,1,.19-.35.38.38,0,0,1,.37-.09.46.46,0,0,1,.32.39,1.16,1.16,0,0,1,0,.54.86.86,0,0,1-.17.37.33.33,0,0,1-.35.12.49.49,0,0,1-.35-.4A1.2,1.2,0,0,1,61.68,26.72Z"/><path class="cls-2" d="M55,7.37a.31.31,0,0,0,.07-.26.38.38,0,0,0-.14-.23.3.3,0,0,0-.23-.07.31.31,0,0,0-.21.12.3.3,0,0,0-.05.31.62.62,0,0,0,.2.27,1.68,1.68,0,0,0,.24.17q.19.11.25,0a.09.09,0,0,0,0-.05.06.06,0,0,0,0-.05H55l-.16,0a.54.54,0,0,1-.21-.11A.3.3,0,0,0,55,7.37Zm-.48-.22a.2.2,0,0,1,0-.22.14.14,0,0,1,.15,0,.36.36,0,0,1,.15.08.48.48,0,0,1,.14.18.19.19,0,0,1,0,.21.16.16,0,0,1-.15.06.29.29,0,0,1-.15-.07A.5.5,0,0,1,54.51,7.15Z"/><path class="cls-2" d="M53.33,11.38a.38.38,0,0,0,.09-.32.46.46,0,0,0-.17-.28.36.36,0,0,0-.28-.09.38.38,0,0,0-.26.15.36.36,0,0,0-.06.38.76.76,0,0,0,.24.32,2,2,0,0,0,.29.2q.23.13.31,0a.11.11,0,0,0,0-.06.07.07,0,0,0,0-.06l-.11,0-.2,0a.66.66,0,0,1-.25-.13A.36.36,0,0,0,53.33,11.38Zm-.58-.26a.25.25,0,0,1,0-.27.17.17,0,0,1,.18-.06.44.44,0,0,1,.18.1.59.59,0,0,1,.17.22.23.23,0,0,1,0,.26.19.19,0,0,1-.18.07.35.35,0,0,1-.18-.08A.6.6,0,0,1,52.74,11.12Z"/><path class="cls-2" d="M41.73.13a.51.51,0,0,0-.34.29.61.61,0,0,0,0,.44.49.49,0,0,0,.25.31.51.51,0,0,0,.39,0,.49.49,0,0,0,.35-.38,1,1,0,0,0,0-.54,2.72,2.72,0,0,0-.17-.44Q42-.48,41.85-.43a.15.15,0,0,0-.07.05.09.09,0,0,0,0,.09s0,0,.11.1a.89.89,0,0,1,.2.17.88.88,0,0,1,.18.33A.48.48,0,0,0,41.73.13Zm.46.72a.33.33,0,0,1-.22.28.22.22,0,0,1-.24-.07.58.58,0,0,1-.13-.24.79.79,0,0,1,0-.36.31.31,0,0,1,.2-.28A.26.26,0,0,1,42,.24a.47.47,0,0,1,.14.23A.81.81,0,0,1,42.18.85Z"/><path class="cls-2" d="M35,1.32a.51.51,0,0,0-.34.29.61.61,0,0,0,0,.44.49.49,0,0,0,.25.31.51.51,0,0,0,.39,0A.49.49,0,0,0,35.67,2a1,1,0,0,0,0-.54A2.72,2.72,0,0,0,35.47,1q-.16-.32-.31-.27a.15.15,0,0,0-.07.05.09.09,0,0,0,0,.09s0,0,.11.1a.86.86,0,0,1,.38.5A.48.48,0,0,0,35,1.32Zm.46.72a.33.33,0,0,1-.22.28A.22.22,0,0,1,35,2.26.58.58,0,0,1,34.9,2a.79.79,0,0,1,0-.36.31.31,0,0,1,.2-.28.26.26,0,0,1,.25.05.47.47,0,0,1,.14.23A.81.81,0,0,1,35.49,2Z"/><path class="cls-2" d="M32.39,3a.43.43,0,0,0-.14.34.52.52,0,0,0,.15.34.41.41,0,0,0,.3.14A.43.43,0,0,0,33,3.69a.41.41,0,0,0,.12-.41.85.85,0,0,0-.23-.39,2.29,2.29,0,0,0-.3-.27q-.24-.18-.34-.09a.12.12,0,0,0,0,.07.08.08,0,0,0,0,.07l.12,0a.73.73,0,0,1,.48.23A.41.41,0,0,0,32.39,3Zm.62.37a.28.28,0,0,1-.06.3.19.19,0,0,1-.21,0,.49.49,0,0,1-.19-.13.66.66,0,0,1-.16-.26.26.26,0,0,1,0-.28A.22.22,0,0,1,32.65,3a.4.4,0,0,1,.19.12A.68.68,0,0,1,33,3.37Z"/><path class="cls-2" d="M28.12,7.66a.4.4,0,0,0,.35,0,.48.48,0,0,0,.22-.27.38.38,0,0,0,0-.31.4.4,0,0,0-.24-.21.38.38,0,0,0-.4.07.8.8,0,0,0-.24.35,2.15,2.15,0,0,0-.1.36q-.05.28.07.32h.07a.07.07,0,0,0,.05,0,.29.29,0,0,0,0-.11.68.68,0,0,1,0-.5A.38.38,0,0,0,28.12,7.66ZM28.17,7a.26.26,0,0,1,.27-.08.18.18,0,0,1,.12.16.46.46,0,0,1,0,.21.62.62,0,0,1-.16.24.25.25,0,0,1-.26.08A.2.2,0,0,1,28,7.45a.37.37,0,0,1,0-.21A.64.64,0,0,1,28.17,7Z"/><path class="cls-2" d="M55.59,22.24a.54.54,0,0,0-.22.41.65.65,0,0,0,.15.44.52.52,0,0,0,.36.21.54.54,0,0,0,.4-.12.52.52,0,0,0,.2-.5,1.07,1.07,0,0,0-.24-.52,2.89,2.89,0,0,0-.34-.37q-.28-.25-.41-.15a.16.16,0,0,0-.05.08.1.1,0,0,0,0,.09.39.39,0,0,0,.15.06.92.92,0,0,1,.57.35A.51.51,0,0,0,55.59,22.24Zm.73.54a.35.35,0,0,1-.11.37.24.24,0,0,1-.27,0,.62.62,0,0,1-.22-.19.83.83,0,0,1-.16-.35.33.33,0,0,1,.09-.35.27.27,0,0,1,.27,0,.5.5,0,0,1,.23.17A.86.86,0,0,1,56.32,22.78Z"/><path class="cls-2" d="M57.59,10.39a.54.54,0,0,0-.22.41.65.65,0,0,0,.15.44.52.52,0,0,0,.36.21.54.54,0,0,0,.4-.12.52.52,0,0,0,.2-.5,1.07,1.07,0,0,0-.24-.52,2.89,2.89,0,0,0-.34-.37q-.28-.25-.41-.15a.16.16,0,0,0-.05.08.1.1,0,0,0,0,.09.39.39,0,0,0,.15.06.92.92,0,0,1,.57.35A.51.51,0,0,0,57.59,10.39Zm.73.54a.35.35,0,0,1-.11.37.24.24,0,0,1-.27,0,.62.62,0,0,1-.22-.19.83.83,0,0,1-.16-.35.33.33,0,0,1,.09-.35.27.27,0,0,1,.27,0,.5.5,0,0,1,.23.17A.86.86,0,0,1,58.32,10.93Z"/><path class="cls-2" d="M43,5.37a.73.73,0,0,0-.59-.24.88.88,0,0,0-.58.27.7.7,0,0,0-.23.52.73.73,0,0,0,.22.52.7.7,0,0,0,.71.2,1.45,1.45,0,0,0,.67-.39,3.92,3.92,0,0,0,.45-.52q.3-.41.14-.58a.21.21,0,0,0-.12-.06.13.13,0,0,0-.12,0,.53.53,0,0,0-.06.21,1.24,1.24,0,0,1-.39.82A.7.7,0,0,0,43,5.37Zm-.63,1.06a.47.47,0,0,1-.51-.09A.32.32,0,0,1,41.79,6,.84.84,0,0,1,42,5.65a1.13,1.13,0,0,1,.45-.27.45.45,0,0,1,.49.07.37.37,0,0,1,.1.36.68.68,0,0,1-.2.33A1.16,1.16,0,0,1,42.37,6.43Z"/><path class="cls-2" d="M30.73,4.09a.51.51,0,0,0-.34-.28.61.61,0,0,0-.44.06.49.49,0,0,0-.26.3.51.51,0,0,0,0,.4.49.49,0,0,0,.43.28,1,1,0,0,0,.53-.12,2.73,2.73,0,0,0,.41-.25q.29-.21.22-.35a.15.15,0,0,0-.06-.07.09.09,0,0,0-.09,0,.37.37,0,0,0-.08.13.87.87,0,0,1-.43.46A.49.49,0,0,0,30.73,4.09Zm-.64.57a.33.33,0,0,1-.32-.17.23.23,0,0,1,0-.25A.59.59,0,0,1,30,4.08.79.79,0,0,1,30.37,4a.31.31,0,0,1,.31.15.26.26,0,0,1,0,.26.47.47,0,0,1-.2.18A.81.81,0,0,1,30.09,4.67Z"/><path class="cls-2" d="M34.93,8.06a.46.46,0,0,0-.39.07.56.56,0,0,0-.22.34.44.44,0,0,0,.05.35.46.46,0,0,0,.3.2.44.44,0,0,0,.44-.13.92.92,0,0,0,.22-.43A2.47,2.47,0,0,0,35.4,8q0-.32-.12-.36H35.2a.08.08,0,0,0-.05.06.33.33,0,0,0,0,.13.78.78,0,0,1,.07.57A.44.44,0,0,0,34.93,8.06Zm0,.78a.3.3,0,0,1-.3.12.2.2,0,0,1-.16-.17.53.53,0,0,1,0-.25.71.71,0,0,1,.15-.3.28.28,0,0,1,.28-.12.23.23,0,0,1,.17.16.43.43,0,0,1,0,.24A.73.73,0,0,1,34.95,8.83Z"/><path class="cls-2" d="M23.22,20a.65.65,0,0,0,.46-.33.78.78,0,0,0,.07-.56.62.62,0,0,0-.29-.42.65.65,0,0,0-.5-.08.62.62,0,0,0-.48.44,1.29,1.29,0,0,0,0,.69,3.48,3.48,0,0,0,.18.58q.17.42.37.38a.19.19,0,0,0,.1-.06.12.12,0,0,0,0-.11s0-.07-.13-.14a1.1,1.1,0,0,1-.44-.68A.62.62,0,0,0,23.22,20Zm-.51-1a.42.42,0,0,1,.31-.34.29.29,0,0,1,.3.11.75.75,0,0,1,.14.32,1,1,0,0,1,0,.47.4.4,0,0,1-.28.33.33.33,0,0,1-.32-.09.6.6,0,0,1-.16-.3A1,1,0,0,1,22.71,19Z"/><path class="cls-2" d="M23.45,11a.48.48,0,0,0,0,.41.57.57,0,0,0,.31.27.46.46,0,0,0,.37,0,.48.48,0,0,0,.25-.27.46.46,0,0,0-.07-.47,1,1,0,0,0-.41-.29,2.55,2.55,0,0,0-.43-.13q-.33-.07-.38.07a.14.14,0,0,0,0,.09.09.09,0,0,0,.06.06l.14,0a.81.81,0,0,1,.59,0A.45.45,0,0,0,23.45,11Zm.8.09a.31.31,0,0,1,.08.33.21.21,0,0,1-.19.14.55.55,0,0,1-.25,0,.74.74,0,0,1-.28-.2.29.29,0,0,1-.08-.31.24.24,0,0,1,.18-.15.44.44,0,0,1,.25,0A.76.76,0,0,1,24.25,11.05Z"/><path class="cls-2" d="M60.92,20.55a.62.62,0,0,0,.28-.46.75.75,0,0,0-.12-.53.41.41,0,0,0-.23-.17.49.49,0,0,0-.3,0l.4-.26a.18.18,0,0,0,0-.13.17.17,0,0,0-.09-.07l-.57.37a1,1,0,0,0-.4.47.64.64,0,0,0,.08.6.67.67,0,0,0,.44.32A.74.74,0,0,0,60.92,20.55Zm-.48-1.11q.08-.05.21,0a.56.56,0,0,1,.16.16.85.85,0,0,1,.14.46.44.44,0,0,1-.19.42.3.3,0,0,1-.32,0,.63.63,0,0,1-.26-.23Q59.87,19.81,60.44,19.45Z"/><path class="cls-2" d="M56.5,17.46a.43.43,0,0,0,.07.37.52.52,0,0,0,.31.21.29.29,0,0,0,.2,0,.34.34,0,0,0,.15-.14l-.08.32a.13.13,0,0,0,.08.05h.08l.11-.45a.67.67,0,0,0,0-.43.44.44,0,0,0-.32-.26.47.47,0,0,0-.37,0A.51.51,0,0,0,56.5,17.46Zm.77.33s-.05.07-.13.08a.39.39,0,0,1-.16,0,.59.59,0,0,1-.29-.17.31.31,0,0,1-.1-.3.21.21,0,0,1,.16-.15.44.44,0,0,1,.24,0Q57.38,17.34,57.27,17.79Z"/><path class="cls-2" d="M51.14,10a.43.43,0,0,0,.07.37.52.52,0,0,0,.31.21.29.29,0,0,0,.2,0,.34.34,0,0,0,.15-.14l-.08.32a.13.13,0,0,0,.08.05H52l.11-.45a.67.67,0,0,0,0-.43.44.44,0,0,0-.32-.26.47.47,0,0,0-.37,0A.51.51,0,0,0,51.14,10Zm.77.33s-.05.07-.13.08a.39.39,0,0,1-.16,0,.59.59,0,0,1-.29-.17.31.31,0,0,1-.1-.3.21.21,0,0,1,.16-.15.44.44,0,0,1,.24,0Q52,9.85,51.91,10.31Z"/><path class="cls-2" d="M62.77,22.78a.43.43,0,0,0,.07.37.52.52,0,0,0,.31.21.29.29,0,0,0,.2,0,.34.34,0,0,0,.15-.14l-.08.32a.13.13,0,0,0,.08.05h.08l.11-.45a.67.67,0,0,0,0-.43.44.44,0,0,0-.32-.26.47.47,0,0,0-.37,0A.51.51,0,0,0,62.77,22.78Zm.77.33s-.05.07-.13.08a.39.39,0,0,1-.16,0A.59.59,0,0,1,63,23a.31.31,0,0,1-.1-.3.21.21,0,0,1,.16-.15.44.44,0,0,1,.24,0Q63.65,22.65,63.54,23.11Z"/><path class="cls-2" d="M56.65,21.75a.37.37,0,0,0,.06.31.45.45,0,0,0,.27.18.25.25,0,0,0,.17,0,.29.29,0,0,0,.13-.12l-.07.27a.11.11,0,0,0,.06,0h.07l.1-.39a.57.57,0,0,0,0-.36.38.38,0,0,0-.28-.23.4.4,0,0,0-.32,0A.44.44,0,0,0,56.65,21.75Zm.66.28s0,.06-.11.07h-.14a.5.5,0,0,1-.25-.14.26.26,0,0,1-.09-.26.18.18,0,0,1,.14-.13.37.37,0,0,1,.2,0Q57.4,21.65,57.31,22Z"/><path class="cls-2" d="M58.64,9.49a.37.37,0,0,0,.06.31A.45.45,0,0,0,59,10a.25.25,0,0,0,.17,0,.29.29,0,0,0,.13-.12l-.07.27a.11.11,0,0,0,.06,0h.07l.1-.39a.57.57,0,0,0,0-.36.38.38,0,0,0-.28-.23.4.4,0,0,0-.32,0A.44.44,0,0,0,58.64,9.49Zm.66.28s0,.06-.11.07h-.14a.5.5,0,0,1-.25-.14.26.26,0,0,1-.09-.26.18.18,0,0,1,.14-.13.37.37,0,0,1,.2,0Q59.39,9.38,59.3,9.77Z"/><path class="cls-2" d="M27.78,20.69a.41.41,0,0,0,.16-.32.5.5,0,0,0-.11-.34.27.27,0,0,0-.16-.1.32.32,0,0,0-.2,0l.25-.19a.12.12,0,0,0,0-.08.11.11,0,0,0-.06,0l-.35.27a.64.64,0,0,0-.24.33.42.42,0,0,0,.08.39.44.44,0,0,0,.31.18A.49.49,0,0,0,27.78,20.69ZM27.4,20s.08,0,.14,0a.37.37,0,0,1,.12.1.56.56,0,0,1,.12.29.29.29,0,0,1-.1.28.2.2,0,0,1-.21,0,.41.41,0,0,1-.18-.14Q27,20.26,27.4,20Z"/><path class="cls-2" d="M43.09.16a.41.41,0,0,0-.3.19.5.5,0,0,0-.09.35.27.27,0,0,0,.09.17A.32.32,0,0,0,43,1l-.31,0a.12.12,0,0,0,0,.08.11.11,0,0,0,0,.07l.44,0a.64.64,0,0,0,.37-.16.42.42,0,0,0,.13-.37.44.44,0,0,0-.17-.32A.49.49,0,0,0,43.09.16ZM43,1s-.08,0-.11-.09a.37.37,0,0,1,0-.14.56.56,0,0,1,.05-.31.29.29,0,0,1,.23-.19.2.2,0,0,1,.19.09.41.41,0,0,1,.08.21Q43.49.9,43,1Z"/><path class="cls-2" d="M28.12,9.39a.58.58,0,0,0-.05-.5.7.7,0,0,0-.39-.32.39.39,0,0,0-.27,0,.46.46,0,0,0-.22.17l.15-.42a.17.17,0,0,0-.1-.08.16.16,0,0,0-.11,0l-.21.6a.9.9,0,0,0,0,.57.6.6,0,0,0,.4.4.63.63,0,0,0,.51,0A.69.69,0,0,0,28.12,9.39Zm-1-.54q0-.08.18-.09a.52.52,0,0,1,.21,0,.79.79,0,0,1,.36.26.41.41,0,0,1,.1.41.28.28,0,0,1-.23.19.59.59,0,0,1-.32,0Q26.93,9.45,27.13,8.85Z"/><path class="cls-2" d="M44,5a.53.53,0,0,0,0,.46.65.65,0,0,0,.35.31.36.36,0,0,0,.25,0,.42.42,0,0,0,.21-.15l-.15.38a.16.16,0,0,0,.08.08.14.14,0,0,0,.1,0l.22-.54a.83.83,0,0,0,0-.53.55.55,0,0,0-.35-.38.58.58,0,0,0-.47,0A.64.64,0,0,0,44,5Zm.89.54q0,.08-.17.07a.48.48,0,0,1-.2,0,.73.73,0,0,1-.32-.25A.38.38,0,0,1,44.14,5a.26.26,0,0,1,.22-.16.54.54,0,0,1,.29,0Q45.13,5,44.91,5.58Z"/><path class="cls-2" d="M34.3,5.85a.23.23,0,0,0,.13.15.28.28,0,0,0,.2,0A.15.15,0,0,0,34.72,6a.18.18,0,0,0,0-.11l0,.17h0l0,0-.06-.24a.36.36,0,0,0-.12-.2.24.24,0,0,0-.22,0,.25.25,0,0,0-.16.12A.27.27,0,0,0,34.3,5.85Zm.45,0s0,0,0,.07l-.08,0a.32.32,0,0,1-.18,0,.16.16,0,0,1-.13-.11.11.11,0,0,1,0-.11.23.23,0,0,1,.11-.06Q34.68,5.56,34.75,5.8Z"/><path class="cls-2" d="M56.86,13.28a.49.49,0,0,1,.3.26.47.47,0,0,1,0,.37.26.26,0,0,1-.13.15.38.38,0,0,1-.22,0l.34.12a.11.11,0,0,1,0,.09.1.1,0,0,1,0,.06l-.48-.16a.79.79,0,0,1-.38-.25.41.41,0,0,1-.07-.4.42.42,0,0,1,.25-.27A.6.6,0,0,1,56.86,13.28Zm-.11.8s.09,0,.14-.06a.34.34,0,0,0,.08-.13.52.52,0,0,0,0-.32.34.34,0,0,0-.22-.25.23.23,0,0,0-.23,0,.38.38,0,0,0-.13.19Q56.27,13.92,56.75,14.08Z"/><path class="cls-2" d="M52.26,12.23a.49.49,0,0,1,.18.35.47.47,0,0,1-.11.35.26.26,0,0,1-.17.09.38.38,0,0,1-.22,0l.28.23a.11.11,0,0,1,0,.08.1.1,0,0,1-.07,0L51.74,13a.79.79,0,0,1-.27-.37.41.41,0,0,1,.08-.4.42.42,0,0,1,.33-.17A.6.6,0,0,1,52.26,12.23Zm-.39.7s.09,0,.15,0a.34.34,0,0,0,.12-.09.52.52,0,0,0,.12-.3.34.34,0,0,0-.12-.31.23.23,0,0,0-.23,0,.38.38,0,0,0-.19.13Q51.48,12.61,51.87,12.93Z"/><path class="cls-2" d="M54.36,8.51a.36.36,0,0,0,.14.28.44.44,0,0,0,.3.1A.24.24,0,0,0,55,8.84.29.29,0,0,0,55,8.69V9a.11.11,0,0,0,.07,0l.06,0V8.57a.56.56,0,0,0-.11-.34.37.37,0,0,0-.32-.15.39.39,0,0,0-.29.12A.43.43,0,0,0,54.36,8.51Zm.7.1s0,.07-.09.09l-.13,0a.49.49,0,0,1-.27-.07.26.26,0,0,1-.15-.22.18.18,0,0,1,.1-.16.37.37,0,0,1,.19-.06Q55,8.22,55.05,8.62Z"/><path class="cls-2" d="M27.13,11.84a1.69,1.69,0,0,0-1.67,1.24,7.05,7.05,0,0,0-.37,2.59q0,.38,0,1.08c0,.21,0,.39,0,.54v.35a2.62,2.62,0,0,1-.9-.15,2.1,2.1,0,0,1-.69-.41,1.78,1.78,0,0,1-.45-.65,2.25,2.25,0,0,1-.16-.87,2.49,2.49,0,0,1,1.53-2.62,2,2,0,0,0,.18-.75q0-.4-.32-.4A2.14,2.14,0,0,0,22.55,13a4.1,4.1,0,0,0-.69,2.15q0,2.58,3.23,3,0,.25-.15,1.08-.07.34-.11.6a3.45,3.45,0,0,0,0,.47.61.61,0,0,0,.69.69q.56,0,.56-.7a7.38,7.38,0,0,0-.11-1.1q-.1-.72-.11-1.05a4.55,4.55,0,0,0,2.62-.94,3.1,3.1,0,0,0,1.11-2.5,3.08,3.08,0,0,0-.62-1.93A2.13,2.13,0,0,0,27.13,11.84Zm.5,4.7a2.92,2.92,0,0,1-1.83,1.14c0-.12,0-.26,0-.43s0-.36,0-.58V16.5q0-.12,0-.31v-.64q0-3.12,1.27-3.11a1,1,0,0,1,1,.75,3,3,0,0,1,.26,1.29A3.39,3.39,0,0,1,27.63,16.54Z"/><path class="cls-2" d="M29.42,10.3q.09,1.19.18,1.79a5.1,5.1,0,0,0,.3,1.2.86.86,0,0,0,1,.59q.69-.11.6-.62a1.74,1.74,0,0,0-.4-.7q-.26-.31-.43-.54a4.27,4.27,0,0,1-.25-.39,3.74,3.74,0,0,1-.54-1.41c0-.12,0-.24,0-.37s0-.26,0-.42a2.6,2.6,0,0,0,.94,1,1.89,1.89,0,0,0,1.33.29q1.1-.18,1.69-1.76a2.07,2.07,0,0,0,.47.9,1,1,0,0,0,.9.36.78.78,0,0,0,.62-.61,1.83,1.83,0,0,0,.08-.93,1.61,1.61,0,0,0-.08-.31,1.26,1.26,0,0,1-.94.83q-.54.09-.9-.73A8.89,8.89,0,0,0,34,4.89a1.48,1.48,0,0,0-.19-.63q-.17-.2-.63-.13t-.31,1.18q.72,4.46-1.33,4.79a1.08,1.08,0,0,1-1.17-.54A4.29,4.29,0,0,1,30,8.2a7.42,7.42,0,0,1,0-1.48,7.64,7.64,0,0,0,0-1.47q-.09-.58-.63-.49a.71.71,0,0,0-.63.45,2.24,2.24,0,0,0,0,.88q.07.42.27,1.19t.27,1.2q0,.3.09.75T29.42,10.3Z"/></g></svg>